<svg width="48" height="48" viewBox="0 0 48 48" fill="none" xmlns="http://www.w3.org/2000/svg">
<circle cx="24" cy="24" r="24" fill="#F8F8F8"/>
<g clip-path="url(#clip0)">
<path d="M24.2321 28.426H30.5231" stroke="#E60056" stroke-width="2" stroke-miterlimit="10"/>
<path d="M17.464 28.692H15.207C14.8057 28.6683 14.4301 28.4867 14.1623 28.1869C13.8946 27.887 13.7564 27.4934 13.778 27.092V25.07C13.7671 24.5517 13.8935 24.0397 14.1445 23.586C14.3955 23.1324 14.762 22.7532 15.207 22.487L16.372 21.839C17.0673 21.4436 17.6348 20.8571 18.007 20.149L19.258 17.815C19.5254 17.2802 19.9338 16.8284 20.439 16.5084C20.9442 16.1884 21.5271 16.0123 22.125 15.999H29.851C30.2907 16.0074 30.7214 16.1252 31.1043 16.3416C31.4872 16.5581 31.8101 16.8665 32.044 17.239L34.119 20.368C34.5371 21.0183 35.1908 21.4814 35.943 21.66L39.301 22.409C39.7321 22.5275 40.1105 22.7881 40.375 23.1485C40.6394 23.509 40.7744 23.9482 40.758 24.395V26.779C40.7779 27.1579 40.6469 27.5293 40.3937 27.8119C40.1406 28.0945 39.7858 28.2653 39.407 28.287L36.728 28.426" stroke="#E60056" stroke-width="2" stroke-miterlimit="10"/>
<path d="M20.93 31.33C22.5338 31.33 23.834 30.0299 23.834 28.426C23.834 26.8222 22.5338 25.522 20.93 25.522C19.3262 25.522 18.026 26.8222 18.026 28.426C18.026 30.0299 19.3262 31.33 20.93 31.33Z" stroke="#E60056" stroke-width="2" stroke-miterlimit="10"/>
<path d="M33.825 31.33C35.4289 31.33 36.729 30.0299 36.729 28.426C36.729 26.8222 35.4289 25.522 33.825 25.522C32.2212 25.522 30.921 26.8222 30.921 28.426C30.921 30.0299 32.2212 31.33 33.825 31.33Z" stroke="#E60056" stroke-width="2" stroke-miterlimit="10"/>
<path d="M7 24.704H10.651" stroke="#E60056" stroke-width="2" stroke-linecap="round" stroke-linejoin="round"/>
<path d="M9 28.414H10.651" stroke="#E60056" stroke-width="2" stroke-linecap="round" stroke-linejoin="round"/>
</g>
<defs>
<clipPath id="clip0">
<rect width="35.757" height="17.329" fill="white" transform="translate(6 15)"/>
</clipPath>
</defs>
</svg>
