<svg width="32" height="32" viewBox="0 0 32 32" fill="none" xmlns="http://www.w3.org/2000/svg">
<path d="M13.2052 13.9048C13.143 13.8926 13.0784 13.9012 13.0215 13.9291C12.9646 13.9571 12.9184 14.003 12.89 14.0597C12.8616 14.1165 12.8526 14.1809 12.8644 14.2433C12.8762 14.3056 12.9081 14.3624 12.9552 14.4048C13.4031 14.8382 13.7578 15.3583 13.9977 15.9335C14.2375 16.5087 14.3575 17.1267 14.3502 17.7498C14.3575 18.373 14.2375 18.991 13.9977 19.5662C13.7578 20.1414 13.4031 20.6615 12.9552 21.0948C12.9081 21.1373 12.8762 21.1941 12.8644 21.2564C12.8526 21.3187 12.8616 21.3832 12.89 21.44C12.9184 21.4967 12.9646 21.5426 13.0215 21.5706C13.0784 21.5985 13.143 21.6071 13.2052 21.5948C14.0901 21.422 14.8866 20.9449 15.4565 20.2462C16.0264 19.5476 16.3338 18.6714 16.3252 17.7698C16.3432 16.8614 16.0402 15.9758 15.4695 15.2688C14.8988 14.5619 14.097 14.0789 13.2052 13.9048Z" fill="#B80045"/>
<path d="M28.5001 18.1751C28.2895 17.8312 28.0103 17.5343 27.68 17.303C27.3497 17.0716 26.9753 16.9106 26.5801 16.8301L24.6451 16.2401L24.5001 16.2001C23.9001 16.0251 23.5301 15.9351 23.6751 15.5951C23.7351 15.4451 23.7901 15.3201 23.8401 15.2201C24.5601 13.7801 25.4801 12.1151 25.8051 11.6551C26.5823 10.6107 26.9183 9.3029 26.7406 8.01326C26.5629 6.72363 25.8858 5.55537 24.8551 4.76009C23.7098 3.91196 22.315 3.46872 20.8901 3.50009C18.9918 3.49484 17.1569 4.18293 15.7301 5.43509C14.9535 6.15556 14.2638 6.96438 13.6751 7.84509C13.3951 7.84509 13.1101 7.80509 12.8201 7.80509C11.1303 7.78844 9.46693 8.22549 8.00352 9.07064C6.54012 9.9158 5.33026 11.1381 4.50014 12.6101C3.7414 14.0825 3.29148 15.6944 3.17799 17.347C3.0645 18.9995 3.28982 20.6578 3.84014 22.2201C4.65014 24.3701 7.46514 28.4351 12.3401 28.4351C12.5401 28.4351 12.7351 28.4351 12.9351 28.4351C20.0051 28.1951 22.7651 28.0451 23.7951 27.9751H24.0301H24.1451H24.3701C24.9689 27.8894 25.5364 27.6538 26.0198 27.2902C26.5031 26.9265 26.8868 26.4467 27.1351 25.8951C27.3401 25.4451 27.5401 24.9351 27.7401 24.3501C27.8451 24.0651 27.9351 23.7851 28.0101 23.5401V23.4851C28.8301 20.9051 29.1351 19.3301 28.5001 18.1751ZM6.69514 13.8151C7.31082 12.7382 8.20351 11.8457 9.28056 11.2302C10.3576 10.6147 11.5798 10.2988 12.8201 10.3151C13.1907 10.3164 13.5604 10.3498 13.9251 10.4151H14.0001C14.7543 10.5641 15.4833 10.82 16.1651 11.1751C16.4001 11.3001 16.5551 11.3901 16.7001 11.2251L16.9351 10.9701V10.9401C17.0201 10.8451 17.1051 10.6651 16.9351 10.5451C16.472 10.2119 15.9801 9.92077 15.4651 9.67509V9.64009C16.0033 8.78325 16.6467 7.99713 17.3801 7.30009C18.3488 6.45435 19.5942 5.99354 20.8801 6.00509C21.7433 5.97789 22.5916 6.23431 23.2951 6.73509C23.8115 7.13744 24.1495 7.72628 24.2364 8.37511C24.3234 9.02394 24.1524 9.68099 23.7601 10.2051C22.9682 11.4666 22.2422 12.7683 21.5851 14.1051C20.8764 15.8713 20.3128 17.6923 19.9001 19.5501C19.6151 20.9001 19.3451 22.1751 18.1901 23.4601C17.4335 24.2487 16.5241 24.8749 15.5175 25.3004C14.5108 25.7259 13.428 25.9419 12.3351 25.9351C8.83514 25.9351 6.77514 22.9351 6.18014 21.3401C5.76469 20.114 5.5963 18.8177 5.68469 17.5261C5.77309 16.2345 6.11652 14.9732 6.69514 13.8151Z" fill="#B80045"/>
</svg>
