<svg width="72" height="72" viewBox="0 0 72 72" fill="none" xmlns="http://www.w3.org/2000/svg">
<circle cx="36" cy="36" r="36" fill="#F8F8F8"/>
<path d="M36 18.9375V53.0625" stroke="#BDBDBD" stroke-width="2.5" stroke-linecap="round" stroke-linejoin="round"/>
<path d="M45.1875 29.4375C45.1875 28.5757 45.0178 27.7223 44.688 26.9261C44.3582 26.1299 43.8748 25.4065 43.2654 24.7971C42.656 24.1877 41.9326 23.7043 41.1364 23.3745C40.3402 23.0447 39.4868 22.875 38.625 22.875H32.7188C30.9783 22.875 29.3091 23.5664 28.0784 24.7971C26.8477 26.0278 26.1563 27.697 26.1562 29.4375C26.1563 31.178 26.8477 32.8472 28.0784 34.0779C29.3091 35.3086 30.9783 36 32.7188 36H39.9375C41.678 36 43.3472 36.6914 44.5779 37.9221C45.8086 39.1528 46.5 40.822 46.5 42.5625C46.5 44.303 45.8086 45.9722 44.5779 47.2029C43.3472 48.4336 41.678 49.125 39.9375 49.125H32.0625C30.322 49.125 28.6528 48.4336 27.4221 47.2029C26.1914 45.9722 25.5 44.303 25.5 42.5625" stroke="#BDBDBD" stroke-width="2.5" stroke-linecap="round" stroke-linejoin="round"/>
</svg>
