<svg xmlns="http://www.w3.org/2000/svg" width="36" height="36" viewBox="0 0 36 36">
    <path fill="none" d="M0 0H36V36H0z"/>
    <path fill="#fff" d="M1507.843 677.275l-.248.324.239-.33a5.562 5.562 0 0 0-3.268-1.1H1502.016a11.82 11.82 0 0 0 .217-2.308 5.088 5.088 0 0 0-4.646-5.443c-2.955 0-2.955 3.088-2.955 4.406 0 1.541-2.525 3.225-3.482 3.863l-.156.108a1 1 0 0 0-.508.854v7.578a2.021 2.021 0 0 0 2.017 2.018.983.983 0 0 0 .981-.983v-7.534c1.834-1.276 4.148-3.24 4.148-5.906a9.128 9.128 0 0 1 .079-1.367 2.12 2.12 0 0 1 1.524 2.355 7.965 7.965 0 0 1-.569 3.188l-.362.723a.972.972 0 0 0-.075.756.961.961 0 0 0 .474.574 1.178 1.178 0 0 0 .467.116h5.311a2.714 2.714 0 0 1 1.565.5 2.378 2.378 0 0 1 .874 2.278 10.264 10.264 0 0 1-9.277 8.511 45.647 45.647 0 0 1-8.392-.217 1.973 1.973 0 0 0-1.461.4A2.068 2.068 0 0 0 1487 692a.994.994 0 0 0 .849 1.1 56.2 56.2 0 0 0 6.948.468c1.084 0 2.118-.039 3.072-.116a13.257 13.257 0 0 0 12-11 5.358 5.358 0 0 0-2.026-5.177z" transform="translate(-1480.004 -663.181)"/>
</svg>
