<svg xmlns="http://www.w3.org/2000/svg" id="prefix__list-storeinfo" width="26" height="26" viewBox="0 0 26 26">
    <defs>
        <style>
            .prefix__cls-2{fill:none;stroke:#333;stroke-linecap:round;stroke-linejoin:round;stroke-width:2px}
        </style>
    </defs>
    <path id="prefix__Rectangle_260" fill="none" d="M0 0H26V26H0z" data-name="Rectangle 260"/>
    <g id="prefix__Group_1199" data-name="Group 1199" transform="translate(4 4)">
        <g id="prefix__Group_1198" data-name="Group 1198">
            <path id="prefix__Path_1641" d="M9 5.927l-3.3 6a1.614 1.614 0 0 0 1.649 1.979A1.916 1.916 0 0 0 9 11.93s-.2 1.979 1.452 1.979c0 0 1.385-.132 1.385-2.045 0 0-.264 2.045 1.649 2.045 0 0 1.385-.132 1.385-2.045 0 0 .066 2.045 1.517 2.045 0 0 1.584.33 1.584-2.045 0 0 .066 2.061 1.715 2.061 0 0 1.386-.148 1.386-2.061a2.441 2.441 0 0 0 .256 1.263 1.469 1.469 0 0 0 2.649-.246 3.083 3.083 0 0 0 .195-1.149l-3.167-5.8z" class="prefix__cls-2" data-name="Path 1641" transform="translate(-5.683 -5.927)"/>
            <path id="prefix__Path_1642" d="M7.82 16.144v10.383h5v-5.54h5.953v5.54h4.881V16.159" class="prefix__cls-2" data-name="Path 1642" transform="translate(-6.15 -8.162)"/>
            <path id="prefix__Line_66" d="M0 5.641L0.373 0" class="prefix__cls-2" data-name="Line 66" transform="translate(3.319 .362)"/>
            <path id="prefix__Line_67" d="M0 5.575L0 0" class="prefix__cls-2" data-name="Line 67" transform="translate(6.156 .362)"/>
            <path id="prefix__Line_68" d="M0 5.575L0 0" class="prefix__cls-2" data-name="Line 68" transform="translate(9.191 .362)"/>
            <path id="prefix__Line_69" d="M0 5.758L0 0" class="prefix__cls-2" data-name="Line 69" transform="translate(12.291 .179)"/>
            <path id="prefix__Line_70" d="M0 5.758L0 0" class="prefix__cls-2" data-name="Line 70" transform="translate(15.392 .179)"/>
        </g>
        <path id="prefix__Line_71" d="M0 0L5.955 0" class="prefix__cls-2" data-name="Line 71" transform="translate(6.666 18.366)"/>
    </g>
</svg>
