<svg xmlns="http://www.w3.org/2000/svg" id="prefix__list-dine" width="26" height="26" viewBox="0 0 26 26">
    <defs>
        <style>
            .prefix__cls-2{fill:none;stroke:#333;stroke-linecap:round;stroke-linejoin:round;stroke-width:2px}
        </style>
    </defs>
    <path id="prefix__Rectangle_247" fill="none" d="M0 0H26V26H0z" data-name="Rectangle 247"/>
    <g id="prefix__Group_1157" data-name="Group 1157" transform="translate(-4122 -731)">
        <g id="prefix__Group_1156" data-name="Group 1156" transform="translate(4120.55 730.691)">
            <path id="prefix__Path_1628" d="M7.242 3.571a4.1 4.1 0 0 1 4.04 0 4.886 4.886 0 0 1 1.606 3.949s.454 3.249-2.3 3.851l.217 11.9a3.047 3.047 0 0 1-3.181 0l.251-11.9c-2.752-.6-2.266-3.851-2.266-3.851a4.884 4.884 0 0 1 1.633-3.949z" class="prefix__cls-2" data-name="Path 1628" transform="translate(0 -.012)"/>
            <path id="prefix__Path_1629" d="M27.22 23.683V3s-5.639 1.5-5.639 12.548h3.159v8.135z" class="prefix__cls-2" data-name="Path 1629" transform="translate(-4.77)"/>
        </g>
    </g>
</svg>
