<svg xmlns="http://www.w3.org/2000/svg" id="Thumbup-on" width="36" height="36" viewBox="0 0 36 36">
    <defs>
        <style>
            .cls-2{fill:none;stroke:#fff;stroke-linecap:round;stroke-linejoin:round;stroke-width:3px}
        </style>
    </defs>
    <path id="Rectangle_254" fill="none" d="M0 0H36V36H0z"/>
    <path id="Line_55" d="M0 0L2.547 1.761" class="cls-2" transform="translate(8.61 7.615)"/>
    <path id="Line_56" d="M0 0L1.029 3.251" class="cls-2" transform="translate(13.418 2.478)"/>
    <path id="Line_57" d="M0 2.851L1.136 0" class="cls-2" transform="translate(19.825 2.478)"/>
    <path id="Line_58" d="M0 1.49L2.853 0" class="cls-2" transform="translate(22.644 8.179)"/>
    <path id="Path_1849" fill="#fff" d="M1507.161 677.271l-.24.324.231-.33a5.266 5.266 0 0 0-3.161-1.1H1501.524a12.2 12.2 0 0 0 .21-2.307 5.038 5.038 0 0 0-4.495-5.441c-2.859 0-2.859 3.087-2.859 4.4 0 1.54-2.443 3.224-3.368 3.862l-.151.108a1.008 1.008 0 0 0-.491.853v7.575a1.988 1.988 0 0 0 1.951 2.018.968.968 0 0 0 .949-.983v-7.53c1.774-1.275 4.012-3.239 4.012-5.9a9.429 9.429 0 0 1 .076-1.367 2.12 2.12 0 0 1 1.474 2.354 8.2 8.2 0 0 1-.55 3.187l-.35.722a1 1 0 0 0-.073.755.954.954 0 0 0 .458.574 1.11 1.11 0 0 0 .451.116h5.137a2.569 2.569 0 0 1 1.514.5 2.419 2.419 0 0 1 .845 2.277 10.062 10.062 0 0 1-8.973 8.508 42.747 42.747 0 0 1-8.118-.217 1.864 1.864 0 0 0-1.413.4 2.083 2.083 0 0 0-.76 1.357.988.988 0 0 0 .821 1.1 52.637 52.637 0 0 0 6.721.468c1.049 0 2.049-.039 2.971-.116a13 13 0 0 0 11.607-10.993 5.446 5.446 0 0 0-1.959-5.174z" transform="translate(-1480.141 -659.025)"/>
</svg>
