<svg width="120" height="32" viewBox="0 0 120 32" fill="none" xmlns="http://www.w3.org/2000/svg">
<g clip-path="url(#clip0)">
<path d="M81.2449 2.84436C79.7673 1.72723 77.9597 1.1369 76.1091 1.16712C73.7454 1.16276 71.4613 2.02298 69.6853 3.58643C69.0599 4.15842 68.4878 4.7863 67.9761 5.46229C64.6981 5.49264 60.4156 7.02643 58.1091 11.2554C56.0669 14.974 56.2486 19.5561 57.333 22.4471C58.3018 25.0264 61.6899 29.8954 67.588 29.8954H67.6211C71.0587 29.8954 74.5376 28.3754 76.7036 25.9561C77.9587 24.5744 78.8349 22.8902 79.2467 21.0678C79.7972 19.4761 80.488 16.2126 81.5174 14.1713L81.7761 13.6968C81.7752 13.6904 81.7752 13.6839 81.7761 13.6775C82.1449 13.0071 82.4422 12.5023 82.555 12.345C84.4376 9.72988 84.6165 5.51746 81.2449 2.84436ZM76.3651 19.2388C76.0403 20.7092 75.7871 22.2347 74.3449 23.8513C72.7596 25.6223 70.1807 26.7285 67.6101 26.7368H67.588C63.4238 26.7368 60.9963 23.2057 60.2945 21.3382C59.4908 19.2002 59.3339 15.614 60.8807 12.7864C62.5513 9.72712 65.6917 8.63195 68.0724 8.63195C68.5629 8.63075 69.0523 8.67694 69.5339 8.76988C70.1616 7.7317 70.9243 6.78176 71.8018 5.94505C72.9943 4.90078 74.5256 4.32802 76.1091 4.33402C77.2488 4.30301 78.3664 4.65341 79.2853 5.32988C80.053 5.92807 80.5566 6.80371 80.6883 7.76938C80.82 8.73506 80.5693 9.71404 79.9899 10.4968C79.2362 11.7014 78.5471 12.9455 77.9256 14.2237C77.4275 15.225 76.5963 18.1906 76.3651 19.2388Z" fill="white"/>
<path d="M5.61464 26.1378C5.58947 26.3098 5.50089 26.4662 5.36639 26.5759C5.23188 26.6857 5.06121 26.741 4.88804 26.7309H0.74033C0.357762 26.7309 0.189872 26.524 0.28345 26.1378L4.45868 6.46608C4.47876 6.29489 4.56361 6.13794 4.69572 6.02759C4.82784 5.91725 4.99715 5.8619 5.16877 5.87297H18.2477C18.633 5.87297 18.7981 6.08263 18.7211 6.46608L17.9367 10.1047C17.9172 10.2762 17.8326 10.4335 17.7003 10.544C17.568 10.6545 17.3983 10.7096 17.2266 10.6978H8.88712L7.94033 15.1364H14.1468C14.5321 15.1364 14.6972 15.3461 14.6201 15.7295L13.9073 19.0702C13.8886 19.2397 13.8062 19.3956 13.6768 19.5063C13.5475 19.617 13.3809 19.6741 13.211 19.6661H6.99079L5.61464 26.1378Z" fill="white"/>
<path d="M16.3074 18.9515C16.3074 14.1598 20.4358 8.3667 26.9725 8.3667C32.4771 8.3667 35.8156 12.0936 35.8156 16.6674C35.8156 21.3874 31.5633 27.1777 25.1643 27.1777C19.6707 27.1777 16.3074 23.4646 16.3074 18.9515ZM30.6606 17.1033C30.6606 14.9488 28.7505 13.2743 26.5872 13.2743C23.5074 13.2743 21.4927 15.9915 21.4927 18.4991C21.4927 20.5626 23.3725 22.2702 25.5221 22.2702C28.6239 22.2784 30.6606 19.517 30.6606 17.1033Z" fill="white"/>
<path d="M36.8806 18.9515C36.8806 14.1598 41.0091 8.3667 47.5458 8.3667C53.0503 8.3667 56.3861 12.0936 56.3861 16.6674C56.3861 21.3874 52.1366 27.1777 45.7375 27.1777C40.2549 27.1777 36.8806 23.4646 36.8806 18.9515ZM51.2448 17.1033C51.2448 14.9488 49.332 13.2743 47.1714 13.2743C44.0889 13.2743 42.0742 15.9915 42.0742 18.4991C42.0742 20.5626 43.9568 22.2702 46.1036 22.2702C49.2136 22.2784 51.2448 19.517 51.2448 17.1033Z" fill="white"/>
<path d="M95.5487 9.36298C95.5732 9.19119 95.6612 9.03489 95.7953 8.92505C95.9293 8.81521 96.0997 8.75983 96.2725 8.76988H100.126C100.508 8.76988 100.676 8.97678 100.583 9.36298L97.0294 26.1382C97.0042 26.3102 96.9157 26.4665 96.7811 26.5763C96.6466 26.6861 96.476 26.7414 96.3028 26.7313H93.3551C93.2184 26.7447 93.0818 26.7044 92.974 26.6191C92.8663 26.5337 92.7957 26.4098 92.7771 26.2733L92.4771 24.7423C90.8257 26.0609 88.3762 27.0292 86.5101 27.0292C82.1065 27.0292 79.9184 23.8513 80.9395 19.0126L82.9844 9.35747C83.0096 9.18544 83.0982 9.02912 83.2327 8.91932C83.3672 8.80953 83.5379 8.75424 83.711 8.76436H87.5643C87.9496 8.76436 88.1147 8.97126 88.0239 9.35747L86.0973 18.4416C85.5936 20.8306 86.6477 22.4085 88.7643 22.4085C91.0432 22.4085 93.1679 20.5933 93.5918 18.6651L95.5487 9.36298Z" fill="white"/>
<path d="M119.571 17.7655C118.47 22.9462 113.736 27.1172 108.595 27.1172C106.833 27.1172 105.264 26.5958 104.375 25.7655L103.175 31.4069C103.154 31.5775 103.069 31.7337 102.937 31.8438C102.805 31.9539 102.637 32.0097 102.465 32H98.612C98.2267 32 98.0615 31.7958 98.1386 31.4069L102.817 9.36271C102.842 9.19092 102.93 9.03462 103.064 8.92478C103.198 8.81494 103.368 8.75956 103.541 8.76961H106.387C106.524 8.75487 106.662 8.795 106.769 8.88128C106.877 8.96757 106.947 9.09301 106.962 9.2303L107.185 10.24C108.52 9.1834 109.896 8.47168 111.955 8.47168C117.069 8.47168 120.666 12.5986 119.571 17.7655ZM114.52 17.84C115.071 15.2275 113.617 13.2937 111.113 13.2937C108.608 13.2937 106.299 15.2248 105.751 17.84C105.204 20.4551 106.745 22.2951 109.233 22.2951C111.721 22.2951 113.959 20.4524 114.52 17.84Z" fill="white"/>
<path d="M67.5881 31.0125C61.0872 31.0125 57.3633 25.6718 56.3037 22.847C55.1285 19.7187 54.9275 14.7587 57.1459 10.7311C59.5459 6.31734 63.9826 4.56838 67.4312 4.38631C67.8967 3.80763 68.4035 3.26367 68.9477 2.75872C70.9249 1.01338 73.469 0.0502742 76.1037 0.049756C78.2018 0.020275 80.2496 0.694091 81.922 1.96424C85.8303 5.05114 85.6266 9.94769 83.4496 12.9987C83.389 13.0842 83.144 13.4925 82.745 14.2208L82.7257 14.2567C82.6541 14.3863 82.5688 14.5325 82.4835 14.7036C81.8587 15.9449 81.3358 17.818 80.9147 19.3242C80.6862 20.1518 80.4936 20.8387 80.3009 21.396C79.8391 23.3753 78.8814 25.2039 77.5184 26.7091C75.1514 29.3546 71.3587 31.0042 67.6101 31.0153H67.5743L67.5881 31.0125ZM68.0725 9.74355C66.0083 9.74355 63.2862 10.6842 61.8496 13.3298C60.4734 15.8484 60.611 19.0484 61.3294 20.9573C61.9349 22.5767 64.0266 25.647 67.5881 25.647C69.867 25.647 72.1404 24.676 73.522 23.1311C74.6725 21.8429 74.9257 20.676 75.2202 19.3242L75.289 19.0153C75.5147 17.9946 76.3734 14.8773 76.9404 13.7518C77.5877 12.4206 78.3071 11.1258 79.0954 9.87321C79.5064 9.32107 79.6852 8.62957 79.5937 7.94685C79.5021 7.26414 79.1474 6.64453 78.6055 6.22079C77.8813 5.69768 77.0041 5.43081 76.1119 5.46217C74.7977 5.45239 73.5253 5.92428 72.534 6.78907C71.7345 7.5538 71.0369 8.4189 70.4587 9.36286L70.0569 10.0056L69.3138 9.85941C68.9046 9.78146 68.489 9.74266 68.0725 9.74355Z" fill="white"/>
<path d="M67.5882 30.4608C61.39 30.4608 57.8313 25.3519 56.8185 22.6512C55.6873 19.6415 55.5001 14.8719 57.6276 10.996C59.9808 6.676 64.3212 5.03186 67.7038 4.92703C68.1927 4.30417 68.7322 3.72288 69.3166 3.1891C71.1938 1.5338 73.609 0.621622 76.1093 0.623581C78.0832 0.593573 80.0107 1.2246 81.5863 2.41668C85.2276 5.29117 85.035 9.86496 83.0093 12.6815C82.924 12.8001 82.6542 13.2525 82.2662 13.9615L82.2496 13.9919L82.0019 14.4498C81.3469 15.7519 80.8157 17.6553 80.3891 19.1863C80.1607 19.9974 79.9652 20.6981 79.7753 21.2443C79.3381 23.1452 78.4206 24.9017 77.1111 26.345C74.8487 28.8774 71.213 30.4581 67.6212 30.4829H67.5882V30.4608ZM68.0726 9.19186C65.8487 9.19186 62.9203 10.207 61.3653 13.0539C59.901 15.7243 60.0524 19.1229 60.8148 21.1422C61.4698 22.8856 63.7267 26.1794 67.5909 26.1794C70.0295 26.1794 72.4542 25.1394 73.935 23.4815C75.1845 22.0829 75.4652 20.7919 75.7625 19.4236L75.8286 19.1146C76.0625 18.0608 76.9102 15.0291 77.4359 13.9781C78.0685 12.6746 78.7714 11.4065 79.5414 10.1794C80.0382 9.51185 80.2539 8.67557 80.1423 7.85027C80.0306 7.02497 79.6004 6.2765 78.9441 5.76565C78.1232 5.16431 77.1256 4.85463 76.1093 4.88565C74.6618 4.88004 73.2618 5.40269 72.1708 6.35599C71.3328 7.15976 70.6028 8.06947 69.9992 9.0622L69.7983 9.37944L69.4295 9.30772C68.982 9.22516 68.5276 9.18635 68.0726 9.19186Z" fill="white"/>
<path d="M78.7157 9.57788C78.1652 10.3365 77.0643 12.3972 76.5138 13.5172C75.9634 14.6372 75.0496 17.8124 74.8047 19.0344C74.5294 20.3889 74.2542 21.5779 73.1726 22.8055C71.879 24.251 69.7487 25.1531 67.6184 25.1613H67.5964C64.2937 25.1613 62.3506 22.3034 61.7836 20.7917C61.0817 18.9241 61.0267 15.8427 62.279 13.5641C63.6139 11.1089 66.1515 10.2344 68.0808 10.2344C68.4304 10.2363 68.7793 10.2667 69.1239 10.3255C69.9883 10.4859 70.82 10.7898 71.5845 11.2248C71.6429 11.2767 71.7183 11.3054 71.7964 11.3054C71.8745 11.3054 71.9499 11.2767 72.0083 11.2248L72.4487 10.7365C72.4757 10.7086 72.4966 10.6752 72.5098 10.6386C72.5231 10.602 72.5284 10.563 72.5256 10.5242C72.5227 10.4854 72.5117 10.4476 72.4932 10.4133C72.4748 10.3791 72.4493 10.3491 72.4184 10.3255C71.9808 9.9708 71.5087 9.66119 71.0093 9.40133C71.5264 8.56916 72.1469 7.80627 72.856 7.13099C73.7569 6.34583 74.9127 5.91717 76.1065 5.92547C76.8922 5.89846 77.6652 6.12896 78.3083 6.58202C79.5056 7.52271 79.2028 8.88823 78.7157 9.57788Z" fill="white"/>
<path d="M67.5963 27.2884C63.1293 27.2884 60.5339 23.5229 59.7853 21.5339C58.9403 19.2801 58.7724 15.5008 60.4073 12.527C62.1908 9.25256 65.5403 8.08566 68.0807 8.08566C68.4794 8.08509 68.8776 8.11274 69.2724 8.16842C69.8847 7.20598 70.6131 6.32297 71.4412 5.53945C72.7358 4.40359 74.3996 3.78067 76.1201 3.78773C77.3824 3.7535 78.62 4.14176 79.6376 4.89118C81.7321 6.54635 81.6192 9.17807 80.4467 10.8139C79.7148 11.9993 79.0451 13.2221 78.4403 14.4774C77.9889 15.3795 77.1633 18.2595 76.9238 19.3574L76.866 19.6332C76.566 21.0126 76.2247 22.6043 74.7743 24.2264C73.0926 26.1105 70.3541 27.2857 67.6321 27.2939H67.61L67.5963 27.2884ZM68.0807 10.7781C66.311 10.7781 63.9825 11.5753 62.7605 13.8126C61.5908 15.945 61.6431 18.8305 62.3009 20.5795C62.8211 21.9588 64.599 24.5905 67.5963 24.5905C69.5972 24.5905 71.5706 23.7629 72.7623 22.4195C73.7862 21.2746 74.0174 20.1243 74.2623 18.9077C74.5073 17.6912 75.4211 14.4746 76.0238 13.2664C76.4311 12.4388 77.6284 10.1326 78.2614 9.2498C78.3902 9.08412 78.485 8.89449 78.5402 8.69187C78.5954 8.48926 78.61 8.27768 78.5832 8.06937C78.5563 7.86107 78.4885 7.66017 78.3836 7.4783C78.2788 7.29643 78.139 7.13719 77.9724 7.0098C77.4269 6.63739 76.7771 6.44896 76.1174 6.47187C75.0596 6.4637 74.0351 6.84227 73.2357 7.53669C72.7019 8.03913 72.2247 8.5988 71.8128 9.20566C72.1446 9.40479 72.4628 9.62598 72.7651 9.86773C72.8527 9.93836 72.925 10.0262 72.9775 10.1258C73.03 10.2254 73.0617 10.3347 73.0706 10.447C73.0794 10.5599 73.0657 10.6734 73.0303 10.781C72.9948 10.8885 72.9384 10.9878 72.8642 11.0732L72.4183 11.5864C72.3438 11.6727 72.2517 11.742 72.1482 11.7896C72.0447 11.8372 71.9322 11.862 71.8183 11.8622C71.6338 11.8588 71.4537 11.8044 71.2981 11.705C70.5935 11.3021 69.8257 11.0223 69.0275 10.8774C68.7153 10.8172 68.3985 10.7839 68.0807 10.7781Z" fill="black"/>
<path d="M79.2936 5.33509C78.3744 4.65919 77.2571 4.30885 76.1175 4.33922C74.5339 4.33272 73.0023 4.90555 71.8101 5.95026C70.9326 6.78768 70.1691 7.73748 69.5395 8.77508C69.0588 8.68216 68.5703 8.63596 68.0808 8.63715C65.6973 8.63715 62.5569 9.7406 60.889 12.7916C59.3395 15.6137 59.5129 19.1999 60.3028 21.3434C61.0046 23.2109 63.4294 26.742 67.5964 26.742H67.6184C70.189 26.742 72.7679 25.6385 74.3505 23.8565C75.7954 22.2399 76.0624 20.6537 76.3734 19.244C76.6019 18.1958 77.4358 15.2303 77.9312 14.2344C78.5538 12.9567 79.2428 11.7127 79.9954 10.5075C80.5775 9.72496 80.8301 8.74476 80.6989 7.77757C80.5676 6.81037 80.0631 5.93338 79.2936 5.33509ZM78.7156 9.57784C78.1652 10.3365 77.0642 12.3972 76.5138 13.5172C75.9633 14.6372 75.0496 17.8123 74.8046 19.0344C74.5294 20.3889 74.2541 21.5778 73.1725 22.8054C71.8789 24.2509 69.7486 25.153 67.6184 25.1613H67.5964C64.2936 25.1613 62.3505 22.3034 61.7835 20.7916C61.0817 18.924 61.0266 15.8427 62.2789 13.564C63.6138 11.1089 66.1514 10.2344 68.0808 10.2344C68.4304 10.2362 68.7792 10.2667 69.1239 10.3254C69.9883 10.4858 70.8199 10.7898 71.5844 11.2247C71.6428 11.2767 71.7182 11.3054 71.7963 11.3054C71.8745 11.3054 71.9499 11.2767 72.0083 11.2247L72.4487 10.7365C72.4757 10.7085 72.4965 10.6751 72.5098 10.6385C72.523 10.602 72.5284 10.563 72.5255 10.5241C72.5227 10.4853 72.5116 10.4475 72.4932 10.4133C72.4747 10.379 72.4492 10.3491 72.4184 10.3254C71.9808 9.97076 71.5087 9.66115 71.0092 9.40129C71.5263 8.56912 72.1469 7.80623 72.856 7.13095C73.7569 6.34579 74.9126 5.91713 76.1064 5.92543C76.8921 5.89842 77.6651 6.12892 78.3083 6.58198C79.5055 7.52267 79.2028 8.88819 78.7156 9.57784Z" fill="black"/>
<path d="M71.5597 17.5089C71.4936 15.7655 70.5689 14.2124 68.4524 13.6882C68.3904 13.6681 68.3234 13.6707 68.2631 13.6954C68.2029 13.7202 68.1534 13.7655 68.1233 13.8234C68.0933 13.8813 68.0847 13.948 68.0991 14.0116C68.1135 14.0753 68.1499 14.1317 68.2019 14.171C68.6476 14.6036 69.0006 15.1227 69.2396 15.6966C69.4785 16.2705 69.5984 16.8871 69.5918 17.5089C69.5979 18.1307 69.4778 18.7472 69.2389 19.321C69 19.8948 68.6472 20.4139 68.2019 20.8469C68.1619 20.8907 68.1363 20.9457 68.1286 21.0046C68.1209 21.0635 68.1314 21.1233 68.1587 21.176C68.1861 21.2287 68.2289 21.2717 68.2814 21.2992C68.3339 21.3266 68.3936 21.3373 68.4524 21.3296C70.5689 20.8055 71.4799 19.2524 71.5597 17.5089Z" fill="black"/>
<path d="M71.2981 11.6854C71.7164 11.9117 71.9697 12.0689 72.4183 11.5751C72.9357 11.0041 72.5862 11.3903 72.8641 11.0785C73.2082 10.6923 73.3596 10.4661 72.8641 9.9751L71.2981 11.6854Z" fill="black"/>
</g>
<defs>
<clipPath id="clip0">
<rect width="120" height="32" fill="white"/>
</clipPath>
</defs>
</svg>
