<svg id="a0b72680-e7a4-4190-b77f-d2e3ab3935ff" data-name="Layer 1" xmlns="http://www.w3.org/2000/svg" viewBox="0 0 1010 280"><path d="M49.78,225.46455c-.743,3.21981-2.84828,4.95355-6.06809,4.95355H9.03706c-3.2198,0-4.582-1.73374-3.839-4.95355L40.12055,61.36714a5.61534,5.61534,0,0,1,5.94426-4.95354H155.41429c3.21981,0,4.582,1.75626,3.96284,4.95354l-6.56345,30.35172a5.59828,5.59828,0,0,1-5.94425,4.95354H77.1483l-7.92567,37.01649H121.111c3.2198,0,4.582,1.75626,3.96284,4.95354l-5.94426,27.875a5.59828,5.59828,0,0,1-5.94425,4.95354H61.297Z"/><path d="M139.19144,165.52667c0-39.98861,34.42713-88.30818,89.16379-88.30818,45.94412,0,73.93165,31.09474,73.93165,69.237,0,39.38068-35.54168,87.67773-89.04,87.67773C167.3028,234.13325,139.19144,203.1736,139.19144,165.52667Zm119.9996-15.356c0-17.96785-15.97518-31.95036-34.05561-31.95036-25.75843,0-42.60048,22.67372-42.60048,43.59119,0,17.22482,15.7275,31.455,33.6841,31.455C242.22515,193.26652,259.191,170.23254,259.191,150.17068Z"/><path d="M311.29412,165.52667c0-39.98861,34.42713-88.30818,89.16379-88.30818,45.94413,0,73.93165,31.09474,73.93165,69.237,0,39.38068-35.54168,87.67773-89.04,87.67773C339.40548,234.13325,311.29412,203.1736,311.29412,165.52667Zm119.99961-15.356c0-17.96785-15.97518-31.95036-34.05562-31.95036-25.75843,0-42.60048,22.67372-42.60048,43.59119,0,17.22482,15.7275,31.455,33.6841,31.455C414.32784,193.26652,431.29373,170.23254,431.29373,150.17068Z"/><path d="M802.49,85.52693c.743-3.2198,2.84828-4.95354,6.06809-4.95354h32.198c3.21981,0,4.582,1.73374,3.839,4.95354L814.87381,225.46455c-.743,3.21981-2.84829,4.95355-6.0681,4.95355H784.16183c-2.72445,0-4.21051-1.23839-4.8297-3.82774l-2.60061-12.76664c-13.74609,11.01038-34.3033,19.07115-49.907,19.07115-36.78007,0-55.10818-26.50146-46.56332-66.87285L697.351,85.52693c.743-3.2198,2.84829-4.95354,6.06809-4.95354h32.198c3.2198,0,4.582,1.73374,3.839,4.95354l-16.099,75.78923c-4.21051,19.92675,4.582,33.07616,22.29095,33.07616,19.07114,0,36.9039-15.13082,40.37138-31.20733Z"/><path d="M1003.3505,155.61958c-9.16406,43.23093-48.79241,78.01832-91.76441,78.01832-14.73679,0-27.86368-4.34561-35.294-11.28057L866.26116,269.416c-.743,3.24232-2.72445,4.95354-5.94425,4.95354h-32.198c-3.2198,0-4.70586-1.71122-3.96283-4.95354L863.289,85.52693c.743-3.2198,2.84828-4.95354,6.06809-4.95354h23.777c2.72445,0,4.21051,1.23838,4.82971,3.85025l1.85757,8.421c11.14548-8.8038,22.66247-14.74806,39.876-14.74806C982.42177,78.09661,1012.51455,112.52375,1003.3505,155.61958Zm-42.229.63045c4.582-21.79559-7.55415-37.91713-28.48288-37.91713-20.80488,0-40.24754,16.12154-44.82957,37.91713-4.70587,21.7956,8.29719,37.15158,29.10207,37.15158C937.83988,193.40161,956.41567,178.04563,961.12153,156.25Z"/><path d="M652.01754,65.95224c-3.56655-2.81-9.3667-4.48746-15.5136-4.48746A36.3358,36.3358,0,0,0,612.4117,70.344a83.37732,83.37732,0,0,0-11.893,13.92509,69.04479,69.04479,0,0,1,7.95719,5.52432,7.02989,7.02989,0,0,1,.81114.80552l.013-.01407c4.15028,4.15028,2.877,6.04839,0,9.26312-2.32873,2.6023.61384-.63439-3.73092,4.13171-3.75006,4.11425-5.8632,2.82014-9.3622.93442-7.29972-4.45819-15.48658-6.16491-18.98108-6.89331a46.76143,46.76143,0,0,0-7.91441-.689c-14.80209,0-34.25826,6.66251-44.47157,25.36214-9.79226,17.79561-9.35319,41.86646-3.86151,56.45352,4.35686,11.57441,19.21975,33.46457,44.28468,33.46457,16.734-.05066,33.218-6.99351,43.1859-18.121,8.56288-9.55809,10.50376-19.14094,12.55949-29.2867,2.05121-10.139,9.67742-36.98384,14.71427-47.0598,3.41119-6.82238,13.42636-26.14007,18.72215-33.51973C657.10393,80.92208,660.01977,72.2545,652.01754,65.95224Z" fill="none"/><path d="M686.50322,22.08973C673.0307,11.47564,655.25085,5.63046,636.442,5.63046c-22.63319,0-45.01758,8.45029-61.41381,23.18484a124.23506,124.23506,0,0,0-12.29943,12.89047C533.79671,43.58586,496.0901,58.737,475.83912,95.821c-18.84824,34.24475-17.18655,76.40616-7.17927,102.99769,9.06837,24.08323,40.91628,69.62656,96.5412,69.62656h.295c31.91434-.09681,64.28462-14.16038,84.47819-36.70125a101.43409,101.43409,0,0,0,23.72636-45.111c1.62341-4.6766,3.2592-10.51953,5.18433-17.40045,3.49-12.46717,7.83335-27.98077,12.92087-38.0815.72164-1.34646,2.17506-4.00561,2.17506-4.00561,3.41344-6.2167,5.35433-9.39372,5.76074-9.95888C718.56278,90.96651,720.319,48.72629,686.50322,22.08973ZM672.68733,97.72022c-3.24007,4.51223-11.34362,19.39538-16.88033,30.46542-3.77145,7.54515-10.65912,31.56534-12.66756,40.71025l-.49085,2.264c-2.5128,11.61831-5.35884,24.78686-17.477,38.31341-14.07932,15.71737-36.96019,25.52426-59.715,25.59294H565.263c-37.35873-.00113-59.05075-31.40322-65.30122-48.00773-7.07681-18.79982-8.47506-50.33251,5.181-75.13963,14.91242-27.30754,42.927-37.04125,64.16866-37.04125a70.47625,70.47625,0,0,1,9.96563.69687c4.44243-6.77735,10.78747-15.33685,18.12321-21.93069a59.06111,59.06111,0,0,1,39.10373-14.63209c11.35037,0,21.79334,3.30311,29.406,9.30027C683.43877,62.11662,682.48409,84.071,672.68733,97.72022Z" fill="#f06"/><path d="M665.91,48.312c-7.6127-5.99716-18.05567-9.30027-29.406-9.30027a59.06111,59.06111,0,0,0-39.10373,14.63209c-7.33574,6.59384-13.68078,15.15334-18.12321,21.93069a70.47625,70.47625,0,0,0-9.96563-.69687c-21.2417,0-49.25624,9.73371-64.16866,37.04125-13.656,24.80712-12.25777,56.33981-5.181,75.13963,6.25047,16.60451,27.94249,48.0066,65.30122,48.00773h.19364c22.75478-.06868,45.63565-9.87557,59.715-25.59294,12.11817-13.52655,14.96421-26.6951,17.477-38.31341l.49085-2.264c2.00844-9.14491,8.89611-33.1651,12.66756-40.71025,5.53671-11.07,13.64026-25.95319,16.88033-30.46542C682.48409,84.071,683.43877,62.11662,665.91,48.312ZM565.263,212.61205c-25.06493,0-39.92782-21.89016-44.28468-33.46457-5.49168-14.58706-5.93075-38.65791,3.86151-56.45352,10.21331-18.69963,29.66948-25.36214,44.47157-25.36214a46.76143,46.76143,0,0,1,7.91441.689c3.4945.7284,11.68136,2.43512,18.98108,6.89331,3.499,1.88572,5.61214,3.17983,9.3622-.93442,4.34476-4.7661,1.40219-1.52941,3.73092-4.13171,2.877-3.21473,4.15028-5.11284,0-9.26312l-.013.01407a7.02989,7.02989,0,0,0-.81114-.80552,69.04479,69.04479,0,0,0-7.95719-5.52432A83.37732,83.37732,0,0,1,612.4117,70.344a36.3358,36.3358,0,0,1,24.09224-8.87923c6.1469,0,11.94705,1.67745,15.5136,4.48746,8.00223,6.30226,5.08639,14.96984,2.42724,18.67261-5.29579,7.37966-15.311,26.69735-18.72215,33.51973-5.03685,10.076-12.66306,36.92079-14.71427,47.0598-2.05573,10.14576-3.99661,19.72861-12.55949,29.2867C598.481,205.61854,581.99694,212.56139,565.263,212.61205Z"/><path d="M652.0175,65.95229c-3.56655-2.81-9.3667-4.48746-15.5136-4.48746a36.33578,36.33578,0,0,0-24.09224,8.87923,83.37763,83.37763,0,0,0-11.893,13.92508,69.04618,69.04618,0,0,1,7.9572,5.52433,7.04314,7.04314,0,0,1,.81128.80552l.01281-.01408c4.15028,4.15028,2.87713,6.04839,0,9.26313-2.32887,2.6023.61384-.63439-3.73092,4.13171-3.7502,4.11425-5.86334,2.82014-9.3622.93441-7.29973-4.45818-15.48658-6.16491-18.98108-6.8933a46.76148,46.76148,0,0,0-7.91442-.689c-14.80209,0-34.25826,6.66252-44.47156,25.36215-9.79226,17.79561-9.3532,41.86646-3.86152,56.45352,4.35687,11.5744,19.21975,33.46456,44.28469,33.46456,16.734-.05066,33.218-6.9935,43.1859-18.121,8.56287-9.55809,10.50376-19.141,12.55948-29.2867,2.05122-10.139,9.67743-36.98384,14.71428-47.0598,3.41119-6.82238,13.42636-26.14008,18.72215-33.51973C657.10389,80.92212,660.01972,72.25455,652.0175,65.95229Z" fill="#fff"/><path d="M572.46907,121.61554a2.41423,2.41423,0,0,0-2.10568,4.02138c8.25173,8.316,11.77536,18.17134,11.62591,27.84286H581.989c.15015,9.67235-3.37319,19.52878-11.62591,27.84567a2.41426,2.41426,0,0,0,2.1054,4.02138c17.69738-4.37263,25.41688-17.31546,25.976-31.8648h.00014C597.88624,138.93212,590.16673,125.98845,572.46907,121.61554Z"/></svg>