<svg width="20" height="20" viewBox="0 0 20 20" fill="none" xmlns="http://www.w3.org/2000/svg">
<g clip-path="url(#clip0)">
<path d="M18.9 0H1.1C0.808262 0 0.528473 0.115893 0.322183 0.322183C0.115893 0.528473 0 0.808262 0 1.1L0 18.9C0 19.1917 0.115893 19.4715 0.322183 19.6778C0.528473 19.8841 0.808262 20 1.1 20H10.679V12.255H8.077V9.237H10.684V7.011C10.6311 6.48325 10.6943 5.95033 10.8692 5.44958C11.044 4.94884 11.3262 4.4924 11.6961 4.11224C12.066 3.73209 12.5145 3.43744 13.0103 3.24893C13.506 3.06042 14.037 2.98263 14.566 3.021C15.3439 3.01827 16.1214 3.05799 16.895 3.14V5.84H15.3C14.047 5.84 13.8 6.44 13.8 7.309V9.237H16.79L16.4 12.256H13.8V20H18.9C19.1917 20 19.4715 19.8841 19.6778 19.6778C19.8841 19.4715 20 19.1917 20 18.9V1.1C20 0.808262 19.8841 0.528473 19.6778 0.322183C19.4715 0.115893 19.1917 0 18.9 0V0Z" fill="white"/>
</g>
<defs>
<clipPath id="clip0">
<rect width="20" height="20" fill="white"/>
</clipPath>
</defs>
</svg>
