<svg width="20" height="20" viewBox="0 0 20 20" fill="none" xmlns="http://www.w3.org/2000/svg">
<path d="M10 1.8C12.67 1.8 12.986 1.81 14.041 1.858C14.6757 1.86457 15.3045 1.98025 15.9 2.2C16.3344 2.36032 16.7273 2.61591 17.05 2.948C17.3831 3.27103 17.6394 3.66471 17.8 4.1C18.0202 4.69472 18.1366 5.32286 18.144 5.957C18.188 7.014 18.2 7.33 18.2 10C18.2 12.67 18.19 12.986 18.142 14.041C18.1355 14.6757 18.0198 15.3045 17.8 15.9C17.6337 16.3319 17.3787 16.7241 17.0514 17.0514C16.7241 17.3787 16.3319 17.6337 15.9 17.8C15.3053 18.0202 14.6771 18.1366 14.043 18.144C12.989 18.192 12.672 18.202 10.002 18.202C7.332 18.202 7.015 18.192 5.961 18.144C5.32551 18.1371 4.69597 18.0207 4.1 17.8C3.66562 17.6397 3.27266 17.3841 2.95 17.052C2.61694 16.729 2.36064 16.3353 2.2 15.9C1.97978 15.3053 1.86342 14.6771 1.856 14.043C1.812 12.986 1.8 12.67 1.8 10C1.8 7.33 1.81 7.014 1.858 5.959C1.86455 5.32431 1.98023 4.69547 2.2 4.1C2.36032 3.66562 2.61591 3.27266 2.948 2.95C3.27103 2.61694 3.66471 2.36064 4.1 2.2C4.69559 1.98092 5.32442 1.86591 5.959 1.86C7.014 1.812 7.33 1.8 10 1.8ZM10 0C7.284 0 6.944 0.012 5.877 0.06C5.04753 0.0767252 4.22691 0.233953 3.45 0.525C2.78247 0.775816 2.17773 1.16931 1.678 1.678C1.16931 2.17773 0.775816 2.78247 0.525 3.45C0.233953 4.22691 0.0767252 5.04753 0.06 5.877C0.011 6.944 0 7.284 0 10C0 12.716 0.011 13.056 0.06 14.123C0.0767252 14.9525 0.233953 15.7731 0.525 16.55C0.775945 17.2172 1.16943 17.8216 1.678 18.321C2.17763 18.8301 2.78238 19.2239 3.45 19.475C4.22691 19.766 5.04753 19.9233 5.877 19.94C6.944 19.989 7.284 20 10 20C12.716 20 13.056 19.989 14.123 19.94C14.9525 19.9233 15.7731 19.766 16.55 19.475C17.2144 19.2181 17.8177 18.8251 18.3214 18.3214C18.8251 17.8177 19.2181 17.2144 19.475 16.55C19.766 15.7731 19.9233 14.9525 19.94 14.123C19.989 13.056 20 12.716 20 10C20 7.284 19.988 6.944 19.94 5.877C19.9233 5.04753 19.766 4.22691 19.475 3.45C19.2241 2.78283 18.8306 2.17844 18.322 1.679C17.8224 1.16995 17.2176 0.776109 16.55 0.525C15.7731 0.233953 14.9525 0.0767252 14.123 0.06C13.056 0.012 12.716 0 10 0ZM10 4.865C8.98439 4.865 7.99159 5.16616 7.14715 5.7304C6.3027 6.29464 5.64453 7.09662 5.25588 8.03492C4.86722 8.97322 4.76553 10.0057 4.96367 11.0018C5.1618 11.9979 5.65086 12.9129 6.36901 13.631C7.08715 14.3491 8.00212 14.8382 8.99821 15.0363C9.9943 15.2345 11.0268 15.1328 11.9651 14.7441C12.9034 14.3555 13.7054 13.6973 14.2696 12.8529C14.8338 12.0084 15.135 11.0156 15.135 10C15.135 8.63811 14.594 7.33201 13.631 6.36901C12.668 5.40601 11.3619 4.865 10 4.865ZM10 13.334C9.34084 13.334 8.69648 13.1385 8.14839 12.7724C7.6003 12.4062 7.1731 11.8857 6.92081 11.2767C6.66851 10.6677 6.60245 9.99764 6.73097 9.35113C6.85949 8.70462 7.17683 8.11073 7.64286 7.64457C8.10889 7.1784 8.70268 6.86088 9.34915 6.73216C9.99562 6.60345 10.6657 6.66931 11.2748 6.92142C11.8838 7.17354 12.4044 7.60058 12.7708 8.14856C13.1372 8.69653 13.3328 9.34084 13.333 10C13.333 10.884 12.9818 11.7317 12.3568 12.3568C11.7317 12.9818 10.884 13.333 10 13.333V13.334ZM16.538 4.663C16.538 4.90034 16.4676 5.13235 16.3358 5.32968C16.2039 5.52702 16.0165 5.68083 15.7972 5.77166C15.5779 5.86248 15.3367 5.88624 15.1039 5.83994C14.8711 5.79364 14.6573 5.67935 14.4895 5.51153C14.3216 5.34371 14.2074 5.12989 14.1611 4.89711C14.1148 4.66433 14.1385 4.42305 14.2293 4.20378C14.3202 3.98451 14.474 3.79709 14.6713 3.66524C14.8687 3.53338 15.1007 3.463 15.338 3.463C15.6561 3.463 15.9612 3.58929 16.1862 3.81412C16.4112 4.03895 16.5377 4.34391 16.538 4.662V4.663Z" fill="white"/>
</svg>
