<svg width="244" height="80" viewBox="0 0 244 80" fill="none" xmlns="http://www.w3.org/2000/svg">
<rect x="8.5" y="8.5" width="227" height="63" rx="3.5" fill="#333333"/>
<path d="M38.22 27.53V29.006H26.16V27.53H28.482V23.336H26.286V21.86H38.076V23.336H35.916V27.53H38.22ZM31.29 37.52V32.3H24.576V30.788H39.804V32.3H33.09V37.52H31.29ZM30.264 27.53H34.134V23.336H30.264V27.53ZM56.1868 33.794V35.306H40.9588V33.794H56.1868ZM54.2428 30.284H43.0108V22.346H54.0448V23.876H44.7928V28.754H54.2428V30.284ZM69.4376 29.42V26.054H66.0716C66.0236 26.438 65.8976 26.816 65.6936 27.188C65.5016 27.56 65.2316 27.89 64.8836 28.178C64.5476 28.466 64.1336 28.7 63.6416 28.88C63.1616 29.048 62.6096 29.132 61.9856 29.132C61.3016 29.132 60.7016 29.03 60.1856 28.826C59.6696 28.622 59.2376 28.358 58.8896 28.034C58.5536 27.698 58.2956 27.326 58.1156 26.918C57.9476 26.498 57.8636 26.078 57.8636 25.658V24.974C57.8636 24.554 57.9476 24.14 58.1156 23.732C58.2956 23.312 58.5536 22.94 58.8896 22.616C59.2376 22.28 59.6696 22.01 60.1856 21.806C60.7016 21.602 61.3016 21.5 61.9856 21.5C62.6096 21.5 63.1616 21.59 63.6416 21.77C64.1216 21.938 64.5296 22.166 64.8656 22.454C65.2136 22.73 65.4836 23.048 65.6756 23.408C65.8796 23.768 66.0116 24.14 66.0716 24.524H69.4376V20.924H71.2016V29.42H69.4376ZM71.2016 30.23V37.52H60.8516V30.23H62.6156V32.336H69.4376V30.23H71.2016ZM61.9856 27.602C62.3696 27.602 62.7116 27.542 63.0116 27.422C63.3116 27.302 63.5636 27.146 63.7676 26.954C63.9716 26.762 64.1276 26.546 64.2356 26.306C64.3436 26.066 64.3976 25.82 64.3976 25.568V25.064C64.3976 24.812 64.3436 24.566 64.2356 24.326C64.1276 24.086 63.9716 23.876 63.7676 23.696C63.5636 23.504 63.3116 23.348 63.0116 23.228C62.7116 23.108 62.3696 23.048 61.9856 23.048C61.6016 23.048 61.2596 23.108 60.9596 23.228C60.6596 23.348 60.4076 23.504 60.2036 23.696C59.9996 23.876 59.8436 24.086 59.7356 24.326C59.6276 24.566 59.5736 24.812 59.5736 25.064V25.568C59.5736 25.82 59.6276 26.066 59.7356 26.306C59.8436 26.546 59.9996 26.762 60.2036 26.954C60.4076 27.146 60.6596 27.302 60.9596 27.422C61.2596 27.542 61.6016 27.602 61.9856 27.602ZM69.4376 36.008V33.83H62.6156V36.008H69.4376ZM92.3364 37.556H81.9324V30.302H83.6784V32.498H90.6084V30.302H92.3364V37.556ZM82.0584 21.572C82.6704 21.572 83.2044 21.674 83.6604 21.878C84.1284 22.07 84.5184 22.328 84.8304 22.652C85.1424 22.976 85.3764 23.348 85.5324 23.768C85.6884 24.176 85.7664 24.59 85.7664 25.01V25.694C85.7664 26.114 85.6884 26.534 85.5324 26.954C85.3764 27.362 85.1424 27.728 84.8304 28.052C84.5184 28.376 84.1284 28.64 83.6604 28.844C83.2044 29.036 82.6704 29.132 82.0584 29.132C81.4464 29.132 80.9064 29.036 80.4384 28.844C79.9704 28.64 79.5804 28.376 79.2684 28.052C78.9684 27.728 78.7404 27.362 78.5844 26.954C78.4284 26.534 78.3504 26.114 78.3504 25.694V25.01C78.3504 24.578 78.4284 24.158 78.5844 23.75C78.7404 23.342 78.9684 22.976 79.2684 22.652C79.5804 22.328 79.9704 22.07 80.4384 21.878C80.9064 21.674 81.4464 21.572 82.0584 21.572ZM90.6264 20.924H92.3364V29.456H90.6264V25.91H88.9524V29.42H87.2604V21.14H88.9524V24.398H90.6264V20.924ZM82.0584 27.62C82.4064 27.62 82.7064 27.56 82.9584 27.44C83.2224 27.32 83.4324 27.164 83.5884 26.972C83.7564 26.78 83.8764 26.564 83.9484 26.324C84.0324 26.072 84.0744 25.826 84.0744 25.586V25.118C84.0744 24.878 84.0324 24.638 83.9484 24.398C83.8764 24.158 83.7564 23.942 83.5884 23.75C83.4324 23.558 83.2224 23.402 82.9584 23.282C82.7064 23.162 82.4064 23.102 82.0584 23.102C81.7104 23.102 81.4044 23.162 81.1404 23.282C80.8884 23.39 80.6784 23.54 80.5104 23.732C80.3544 23.924 80.2344 24.14 80.1504 24.38C80.0784 24.62 80.0424 24.866 80.0424 25.118V25.586C80.0424 25.826 80.0784 26.072 80.1504 26.324C80.2344 26.564 80.3544 26.78 80.5104 26.972C80.6784 27.164 80.8884 27.32 81.1404 27.44C81.4044 27.56 81.7104 27.62 82.0584 27.62ZM83.6784 36.044H90.6084V33.974H83.6784V36.044ZM96.7853 37.628V33.47H105.893V32.246H96.6953V30.788H107.639V34.892H98.5312V36.17H108.125V37.628H96.7853ZM109.835 28.16V29.636H94.6073V28.16H109.835ZM102.221 21.014C103.049 21.014 103.787 21.086 104.435 21.23C105.095 21.362 105.653 21.554 106.109 21.806C106.565 22.058 106.913 22.364 107.153 22.724C107.405 23.072 107.531 23.456 107.531 23.876V24.308C107.531 24.728 107.405 25.118 107.153 25.478C106.913 25.826 106.565 26.126 106.109 26.378C105.653 26.63 105.095 26.828 104.435 26.972C103.787 27.104 103.049 27.17 102.221 27.17C101.393 27.17 100.649 27.104 99.9893 26.972C99.3413 26.828 98.7893 26.63 98.3333 26.378C97.8773 26.126 97.5233 25.826 97.2713 25.478C97.0313 25.118 96.9113 24.728 96.9113 24.308V23.876C96.9113 23.456 97.0313 23.072 97.2713 22.724C97.5233 22.364 97.8773 22.058 98.3333 21.806C98.7893 21.554 99.3413 21.362 99.9893 21.23C100.649 21.086 101.393 21.014 102.221 21.014ZM102.221 25.694C103.361 25.694 104.237 25.556 104.849 25.28C105.473 24.992 105.785 24.656 105.785 24.272V23.912C105.785 23.528 105.473 23.198 104.849 22.922C104.237 22.634 103.361 22.49 102.221 22.49C101.081 22.49 100.199 22.634 99.5753 22.922C98.9633 23.198 98.6572 23.528 98.6572 23.912V24.272C98.6572 24.656 98.9633 24.992 99.5753 25.28C100.199 25.556 101.081 25.694 102.221 25.694ZM128.288 25.568H119.468V26.774H128.486V28.232H123.986V29.546H130.718V31.022H115.49V29.546H122.186V28.232H117.722V21.482H128.378V22.94H119.468V24.128H128.288V25.568ZM123.104 38.006C122.312 38.006 121.592 37.934 120.944 37.79C120.308 37.658 119.762 37.466 119.306 37.214C118.862 36.962 118.52 36.662 118.28 36.314C118.04 35.966 117.92 35.588 117.92 35.18V34.64C117.92 34.22 118.04 33.836 118.28 33.488C118.52 33.14 118.862 32.846 119.306 32.606C119.762 32.354 120.308 32.162 120.944 32.03C121.592 31.886 122.312 31.814 123.104 31.814C123.896 31.814 124.61 31.886 125.246 32.03C125.882 32.162 126.422 32.354 126.866 32.606C127.322 32.858 127.67 33.158 127.91 33.506C128.162 33.854 128.288 34.232 128.288 34.64V35.18C128.288 35.588 128.168 35.96 127.928 36.296C127.688 36.644 127.34 36.944 126.884 37.196C126.44 37.448 125.894 37.646 125.246 37.79C124.61 37.934 123.896 38.006 123.104 38.006ZM123.104 33.272C122.6 33.272 122.138 33.314 121.718 33.398C121.298 33.47 120.938 33.578 120.638 33.722C120.338 33.854 120.104 34.01 119.936 34.19C119.768 34.37 119.684 34.556 119.684 34.748V35.072C119.684 35.276 119.768 35.462 119.936 35.63C120.104 35.81 120.338 35.966 120.638 36.098C120.938 36.242 121.298 36.35 121.718 36.422C122.138 36.506 122.6 36.548 123.104 36.548C123.608 36.548 124.07 36.506 124.49 36.422C124.91 36.35 125.27 36.242 125.57 36.098C125.87 35.966 126.104 35.81 126.272 35.63C126.44 35.462 126.524 35.276 126.524 35.072V34.748C126.524 34.556 126.44 34.37 126.272 34.19C126.104 34.01 125.87 33.854 125.57 33.722C125.27 33.578 124.91 33.47 124.49 33.398C124.07 33.314 123.608 33.272 123.104 33.272ZM141.197 21.266H142.943V27.08H144.725V20.924H146.471V37.52H144.725V28.628H142.943V36.71H141.197V21.266ZM136.193 26.036C136.745 26.036 137.243 26.126 137.687 26.306C138.143 26.474 138.533 26.708 138.857 27.008C139.181 27.308 139.427 27.65 139.595 28.034C139.775 28.418 139.865 28.826 139.865 29.258V30.122C139.865 30.554 139.775 30.962 139.595 31.346C139.427 31.73 139.181 32.072 138.857 32.372C138.533 32.672 138.143 32.912 137.687 33.092C137.243 33.26 136.745 33.344 136.193 33.344C135.641 33.344 135.137 33.26 134.681 33.092C134.237 32.912 133.853 32.672 133.529 32.372C133.205 32.072 132.953 31.73 132.773 31.346C132.605 30.962 132.521 30.554 132.521 30.122V29.258C132.521 28.826 132.605 28.418 132.773 28.034C132.953 27.65 133.205 27.308 133.529 27.008C133.853 26.708 134.237 26.474 134.681 26.306C135.137 26.126 135.641 26.036 136.193 26.036ZM140.135 25.208H131.927V23.714H135.257V21.392H137.003V23.714H140.135V25.208ZM136.193 31.886C136.529 31.886 136.823 31.832 137.075 31.724C137.339 31.604 137.555 31.454 137.723 31.274C137.903 31.094 138.035 30.896 138.119 30.68C138.215 30.464 138.263 30.248 138.263 30.032V29.348C138.263 29.132 138.215 28.916 138.119 28.7C138.035 28.484 137.903 28.286 137.723 28.106C137.555 27.926 137.339 27.782 137.075 27.674C136.823 27.554 136.529 27.494 136.193 27.494C135.857 27.494 135.557 27.554 135.293 27.674C135.041 27.782 134.825 27.926 134.645 28.106C134.477 28.286 134.345 28.484 134.249 28.7C134.165 28.916 134.123 29.132 134.123 29.348V30.032C134.123 30.248 134.165 30.464 134.249 30.68C134.345 30.896 134.477 31.094 134.645 31.274C134.825 31.454 135.041 31.604 135.293 31.724C135.557 31.832 135.857 31.886 136.193 31.886ZM160.352 24.74C160.304 24.836 160.202 24.944 160.046 25.064C159.89 25.172 159.704 25.286 159.488 25.406C159.272 25.526 159.05 25.64 158.822 25.748C158.594 25.856 158.384 25.946 158.192 26.018C157.58 26.258 156.986 26.474 156.41 26.666C155.846 26.846 155.258 27.032 154.646 27.224L154.034 25.766C154.754 25.562 155.384 25.37 155.924 25.19C156.476 25.01 156.992 24.824 157.472 24.632C158.048 24.404 158.516 24.14 158.876 23.84C159.248 23.54 159.446 23.204 159.47 22.832H154.736V21.356H166.004V22.832H161.252C161.276 23.204 161.462 23.534 161.81 23.822C162.158 24.098 162.638 24.362 163.25 24.614C163.718 24.818 164.228 25.01 164.78 25.19C165.344 25.37 165.98 25.562 166.688 25.766L166.094 27.224C165.458 27.02 164.858 26.828 164.294 26.648C163.73 26.456 163.16 26.246 162.584 26.018C162.392 25.946 162.176 25.856 161.936 25.748C161.696 25.628 161.468 25.514 161.252 25.406C161.036 25.286 160.844 25.172 160.676 25.064C160.52 24.944 160.418 24.836 160.37 24.74H160.352ZM155.852 35.666C155.852 35.33 155.96 35.042 156.176 34.802C156.404 34.55 156.716 34.346 157.112 34.19C157.52 34.022 158 33.902 158.552 33.83C159.104 33.746 159.71 33.704 160.37 33.704C161.03 33.704 161.636 33.746 162.188 33.83C162.74 33.902 163.214 34.022 163.61 34.19C164.018 34.346 164.33 34.55 164.546 34.802C164.774 35.042 164.888 35.33 164.888 35.666V36.026C164.888 36.362 164.774 36.65 164.546 36.89C164.33 37.142 164.018 37.346 163.61 37.502C163.214 37.67 162.74 37.79 162.188 37.862C161.636 37.946 161.03 37.988 160.37 37.988C159.71 37.988 159.104 37.946 158.552 37.862C158 37.79 157.52 37.67 157.112 37.502C156.716 37.346 156.404 37.142 156.176 36.89C155.96 36.65 155.852 36.362 155.852 36.026V35.666ZM167.984 28.052V29.528H152.756V28.052H159.47V26.468H161.27V28.052H167.984ZM154.412 31.544H159.47V30.14H161.27V31.544H166.328V33.002H154.412V31.544ZM157.58 35.918C157.58 36.062 157.646 36.182 157.778 36.278C157.922 36.374 158.114 36.446 158.354 36.494C158.606 36.554 158.9 36.596 159.236 36.62C159.584 36.644 159.962 36.656 160.37 36.656C160.778 36.656 161.15 36.644 161.486 36.62C161.834 36.596 162.128 36.554 162.368 36.494C162.62 36.446 162.812 36.374 162.944 36.278C163.088 36.182 163.16 36.062 163.16 35.918V35.774C163.16 35.63 163.088 35.51 162.944 35.414C162.812 35.318 162.62 35.24 162.368 35.18C162.128 35.132 161.834 35.096 161.486 35.072C161.15 35.048 160.778 35.036 160.37 35.036C159.962 35.036 159.584 35.048 159.236 35.072C158.9 35.096 158.606 35.132 158.354 35.18C158.114 35.24 157.922 35.318 157.778 35.414C157.646 35.51 157.58 35.63 157.58 35.774V35.918ZM173.819 22.058C174.431 22.058 174.989 22.16 175.493 22.364C176.009 22.568 176.447 22.874 176.807 23.282C177.179 23.678 177.467 24.176 177.671 24.776C177.887 25.376 177.995 26.072 177.995 26.864V28.736C177.995 29.528 177.887 30.224 177.671 30.824C177.467 31.424 177.179 31.922 176.807 32.318C176.447 32.714 176.009 33.014 175.493 33.218C174.989 33.422 174.431 33.524 173.819 33.524C173.207 33.524 172.643 33.422 172.127 33.218C171.623 33.014 171.185 32.714 170.812 32.318C170.453 31.922 170.165 31.424 169.949 30.824C169.745 30.224 169.643 29.528 169.643 28.736V26.864C169.643 26.072 169.745 25.376 169.949 24.776C170.165 24.176 170.453 23.678 170.812 23.282C171.185 22.874 171.623 22.568 172.127 22.364C172.643 22.16 173.207 22.058 173.819 22.058ZM173.819 31.922C174.143 31.922 174.455 31.862 174.755 31.742C175.055 31.622 175.313 31.43 175.529 31.166C175.757 30.89 175.937 30.536 176.069 30.104C176.213 29.66 176.285 29.12 176.285 28.484V27.116C176.285 26.48 176.213 25.946 176.069 25.514C175.937 25.07 175.757 24.716 175.529 24.452C175.313 24.176 175.055 23.978 174.755 23.858C174.455 23.738 174.143 23.678 173.819 23.678C173.495 23.678 173.183 23.738 172.883 23.858C172.583 23.978 172.319 24.176 172.091 24.452C171.875 24.716 171.695 25.07 171.551 25.514C171.419 25.946 171.353 26.48 171.353 27.116V28.484C171.353 29.12 171.419 29.66 171.551 30.104C171.695 30.536 171.875 30.89 172.091 31.166C172.319 31.43 172.583 31.622 172.883 31.742C173.183 31.862 173.495 31.922 173.819 31.922ZM184.691 28.466H182.135V37.52H180.353V20.924H182.135V26.918H184.691V28.466ZM190.435 33.812C189.799 33.812 189.235 33.716 188.743 33.524C188.251 33.32 187.831 33.056 187.483 32.732C187.135 32.408 186.871 32.036 186.691 31.616C186.511 31.196 186.421 30.77 186.421 30.338V29.294C186.421 28.862 186.511 28.436 186.691 28.016C186.871 27.596 187.135 27.224 187.483 26.9C187.831 26.564 188.251 26.3 188.743 26.108C189.235 25.904 189.799 25.802 190.435 25.802C191.059 25.802 191.617 25.904 192.109 26.108C192.613 26.3 193.039 26.564 193.387 26.9C193.735 27.224 193.999 27.596 194.179 28.016C194.359 28.436 194.449 28.862 194.449 29.294V30.338C194.449 30.77 194.359 31.196 194.179 31.616C193.999 32.036 193.735 32.408 193.387 32.732C193.039 33.056 192.613 33.32 192.109 33.524C191.617 33.716 191.059 33.812 190.435 33.812ZM201.073 29.06H198.517V37.52H196.735V20.924H198.517V27.512H201.073V29.06ZM190.435 27.296C189.715 27.296 189.145 27.5 188.725 27.908C188.305 28.304 188.095 28.832 188.095 29.492V30.14C188.095 30.8 188.305 31.328 188.725 31.724C189.145 32.12 189.715 32.318 190.435 32.318C191.155 32.318 191.725 32.12 192.145 31.724C192.565 31.328 192.775 30.8 192.775 30.14V29.492C192.775 28.832 192.565 28.304 192.145 27.908C191.725 27.5 191.155 27.296 190.435 27.296ZM189.553 23.372V21.032H191.335V23.372H195.187V24.884H185.593V23.372H189.553ZM217.132 29.312V30.824H201.904V29.312H217.132ZM205.882 35.792H215.26V37.34H204.1V32.336H205.882V35.792ZM205.972 21.572V25.892H214.954V27.404H204.208V21.572H205.972ZM36.51 40.924H38.274V50.572H36.51V40.924ZM27.348 51.436H38.274V57.682H36.492V52.966H27.348V51.436ZM29.76 46.594C29.712 46.75 29.568 46.966 29.328 47.242C29.088 47.518 28.83 47.782 28.554 48.034C28.182 48.382 27.744 48.766 27.24 49.186C26.736 49.606 26.244 50.008 25.764 50.392L24.702 49.132C24.99 48.916 25.272 48.694 25.548 48.466C25.836 48.238 26.106 48.016 26.358 47.8C26.622 47.584 26.862 47.38 27.078 47.188C27.294 46.984 27.48 46.804 27.636 46.648C27.864 46.42 28.05 46.204 28.194 46C28.35 45.784 28.47 45.568 28.554 45.352C28.65 45.124 28.716 44.884 28.752 44.632C28.788 44.38 28.806 44.098 28.806 43.786V41.608H30.606V43.714C30.606 43.99 30.612 44.242 30.624 44.47C30.648 44.686 30.69 44.89 30.75 45.082C30.81 45.274 30.9 45.466 31.02 45.658C31.152 45.838 31.326 46.024 31.542 46.216C31.962 46.6 32.424 47.002 32.928 47.422C33.444 47.83 33.972 48.226 34.512 48.61L33.468 49.852C33 49.504 32.544 49.15 32.1 48.79C31.668 48.43 31.236 48.07 30.804 47.71C30.528 47.482 30.3 47.272 30.12 47.08C29.952 46.888 29.838 46.726 29.778 46.594H29.76ZM44.1268 54.1C44.1268 53.668 44.2408 53.26 44.4688 52.876C44.6968 52.492 45.0268 52.156 45.4588 51.868C45.8908 51.58 46.4128 51.352 47.0248 51.184C47.6488 51.016 48.3508 50.932 49.1308 50.932C49.9108 50.932 50.6068 51.016 51.2188 51.184C51.8428 51.352 52.3708 51.58 52.8028 51.868C53.2348 52.156 53.5648 52.492 53.7928 52.876C54.0208 53.26 54.1348 53.668 54.1348 54.1V54.82C54.1348 55.252 54.0208 55.66 53.7928 56.044C53.5648 56.428 53.2348 56.764 52.8028 57.052C52.3708 57.34 51.8428 57.568 51.2188 57.736C50.6068 57.904 49.9108 57.988 49.1308 57.988C48.3508 57.988 47.6488 57.904 47.0248 57.736C46.4128 57.568 45.8908 57.34 45.4588 57.052C45.0268 56.764 44.6968 56.428 44.4688 56.044C44.2408 55.66 44.1268 55.252 44.1268 54.82V54.1ZM50.9668 49.024C50.3308 49.108 49.7368 49.174 49.1848 49.222C48.6328 49.27 48.0208 49.312 47.3488 49.348C46.6768 49.372 45.8968 49.39 45.0088 49.402C44.1208 49.414 43.0288 49.42 41.7328 49.42V41.968H49.4188V43.498H43.4788V47.89C44.4028 47.89 45.1828 47.884 45.8188 47.872C46.4668 47.86 47.0548 47.842 47.5828 47.818C48.1108 47.794 48.6208 47.764 49.1128 47.728C49.6048 47.68 50.1628 47.62 50.7868 47.548L50.9668 49.024ZM52.3888 54.208C52.3888 53.992 52.3108 53.776 52.1548 53.56C52.0108 53.332 51.7948 53.134 51.5068 52.966C51.2308 52.798 50.8888 52.66 50.4808 52.552C50.0848 52.444 49.6348 52.39 49.1308 52.39C48.6268 52.39 48.1708 52.444 47.7628 52.552C47.3668 52.66 47.0248 52.798 46.7368 52.966C46.4608 53.134 46.2448 53.332 46.0888 53.56C45.9448 53.776 45.8728 53.992 45.8728 54.208V54.712C45.8728 54.928 45.9448 55.144 46.0888 55.36C46.2448 55.588 46.4608 55.786 46.7368 55.954C47.0248 56.122 47.3668 56.26 47.7628 56.368C48.1708 56.476 48.6268 56.53 49.1308 56.53C49.6348 56.53 50.0848 56.476 50.4808 56.368C50.8888 56.26 51.2308 56.122 51.5068 55.954C51.7948 55.786 52.0108 55.588 52.1548 55.36C52.3108 55.144 52.3888 54.928 52.3888 54.712V54.208ZM56.4208 46.306H54.0628V50.716H52.2988V40.924H54.0628V44.758H56.4208V46.306ZM61.3916 42.166C62.5916 42.166 63.4976 42.562 64.1096 43.354C64.7336 44.146 65.0456 45.34 65.0456 46.936V46.99H66.7556V41.266H68.5016V56.71H66.7556V48.538H65.0456V48.7C65.0456 50.296 64.7336 51.49 64.1096 52.282C63.4976 53.074 62.5916 53.47 61.3916 53.47C60.1916 53.47 59.2796 53.074 58.6556 52.282C58.0436 51.49 57.7376 50.296 57.7376 48.7V46.936C57.7376 45.34 58.0436 44.146 58.6556 43.354C59.2796 42.562 60.1916 42.166 61.3916 42.166ZM71.7956 57.52H70.0496V40.924H71.7956V57.52ZM61.3916 51.904C62.0636 51.904 62.5556 51.646 62.8676 51.13C63.1916 50.602 63.3536 49.726 63.3536 48.502V47.134C63.3536 45.922 63.1916 45.058 62.8676 44.542C62.5436 44.014 62.0516 43.75 61.3916 43.75C60.7196 43.75 60.2216 44.014 59.8976 44.542C59.5856 45.058 59.4296 45.922 59.4296 47.134V48.502C59.4296 49.726 59.5856 50.602 59.8976 51.13C60.2216 51.646 60.7196 51.904 61.3916 51.904ZM91.4904 49.348H80.2764V41.77H91.2384V43.264H82.0404V44.812H91.1124V46.306H82.0404V47.854H91.4904V49.348ZM84.9384 57.52V52.372H78.2244V50.86H93.4524V52.372H86.7384V57.52H84.9384ZM108.251 48.808V50.284H105.569V53.794H109.835V55.306H94.6073V53.794H98.8733V50.284H96.1913V48.808H98.5133V43.786H96.3173V42.31H108.107V43.786H105.947V48.808H108.251ZM100.295 48.808H104.165V43.786H100.295V48.808ZM100.637 53.794H103.805V50.284H100.637V53.794ZM115.904 53.812C115.268 53.812 114.704 53.716 114.212 53.524C113.72 53.32 113.3 53.056 112.952 52.732C112.604 52.408 112.34 52.036 112.16 51.616C111.98 51.196 111.89 50.77 111.89 50.338V49.294C111.89 48.862 111.98 48.436 112.16 48.016C112.34 47.596 112.604 47.224 112.952 46.9C113.3 46.564 113.72 46.3 114.212 46.108C114.704 45.904 115.268 45.802 115.904 45.802C116.528 45.802 117.086 45.904 117.578 46.108C118.082 46.3 118.508 46.564 118.856 46.9C119.204 47.224 119.468 47.596 119.648 48.016C119.828 48.436 119.918 48.862 119.918 49.294V50.338C119.918 50.77 119.828 51.196 119.648 51.616C119.468 52.036 119.204 52.408 118.856 52.732C118.508 53.056 118.082 53.32 117.578 53.524C117.086 53.716 116.528 53.812 115.904 53.812ZM126.542 49.06H123.986V57.52H122.204V40.924H123.986V47.512H126.542V49.06ZM115.904 47.296C115.184 47.296 114.614 47.5 114.194 47.908C113.774 48.304 113.564 48.832 113.564 49.492V50.14C113.564 50.8 113.774 51.328 114.194 51.724C114.614 52.12 115.184 52.318 115.904 52.318C116.624 52.318 117.194 52.12 117.614 51.724C118.034 51.328 118.244 50.8 118.244 50.14V49.492C118.244 48.832 118.034 48.304 117.614 47.908C117.194 47.5 116.624 47.296 115.904 47.296ZM115.022 43.372V41.032H116.804V43.372H120.656V44.884H111.062V43.372H115.022ZM136.787 41.266H138.533V56.71H136.787V47.836H134.123V46.288H136.787V41.266ZM131.513 49.312C131.453 49.492 131.351 49.684 131.207 49.888C131.075 50.092 130.919 50.302 130.739 50.518C130.379 50.95 129.971 51.412 129.515 51.904C129.071 52.384 128.603 52.87 128.111 53.362L126.905 52.156C127.445 51.628 127.961 51.1 128.453 50.572C128.957 50.044 129.401 49.528 129.785 49.024C129.965 48.784 130.109 48.55 130.217 48.322C130.337 48.082 130.427 47.836 130.487 47.584C130.547 47.332 130.583 47.068 130.595 46.792C130.619 46.504 130.631 46.198 130.631 45.874V42.274H132.359V45.874C132.359 46.198 132.365 46.492 132.377 46.756C132.401 47.02 132.443 47.278 132.503 47.53C132.563 47.77 132.647 48.004 132.755 48.232C132.863 48.46 133.013 48.694 133.205 48.934C133.589 49.438 134.009 49.942 134.465 50.446C134.933 50.938 135.437 51.448 135.977 51.976L134.753 53.146C134.273 52.666 133.829 52.216 133.421 51.796C133.025 51.364 132.647 50.932 132.287 50.5C132.107 50.284 131.951 50.08 131.819 49.888C131.687 49.684 131.591 49.492 131.531 49.312H131.513ZM141.827 57.52H140.081V40.924H141.827V57.52ZM158.984 53.794V55.306H143.756V53.794H147.554V49.78C147.014 49.432 146.582 49.006 146.258 48.502C145.946 47.986 145.79 47.398 145.79 46.738V45.874C145.79 45.25 145.934 44.692 146.222 44.2C146.522 43.696 146.924 43.27 147.428 42.922C147.944 42.562 148.538 42.292 149.21 42.112C149.894 41.92 150.614 41.824 151.37 41.824C152.126 41.824 152.84 41.92 153.512 42.112C154.196 42.292 154.79 42.562 155.294 42.922C155.81 43.27 156.212 43.696 156.5 44.2C156.8 44.692 156.95 45.25 156.95 45.874V46.738C156.95 47.398 156.788 47.986 156.464 48.502C156.152 49.006 155.726 49.432 155.186 49.78V53.794H158.984ZM151.37 43.372C150.854 43.372 150.362 43.432 149.894 43.552C149.438 43.672 149.03 43.846 148.67 44.074C148.322 44.29 148.046 44.56 147.842 44.884C147.638 45.208 147.536 45.568 147.536 45.964V46.648C147.536 47.044 147.638 47.404 147.842 47.728C148.046 48.052 148.322 48.328 148.67 48.556C149.03 48.772 149.438 48.94 149.894 49.06C150.362 49.18 150.854 49.24 151.37 49.24C151.886 49.24 152.372 49.18 152.828 49.06C153.296 48.94 153.704 48.772 154.052 48.556C154.412 48.328 154.694 48.052 154.898 47.728C155.102 47.404 155.204 47.044 155.204 46.648V45.964C155.204 45.568 155.102 45.208 154.898 44.884C154.694 44.56 154.412 44.29 154.052 44.074C153.704 43.846 153.296 43.672 152.828 43.552C152.372 43.432 151.886 43.372 151.37 43.372ZM151.37 50.77C150.65 50.77 149.966 50.686 149.318 50.518V53.794H153.422V50.518C152.75 50.686 152.066 50.77 151.37 50.77ZM161.237 54.136H163.289V56.206H161.237V54.136ZM161.507 52.282L161.255 41.788H163.271L163.019 52.282H161.507Z" fill="white"/>
<rect x="8.5" y="8.5" width="227" height="63" rx="3.5" stroke="#333333"/>
<path d="M130 72L114 72L122 80L130 72Z" fill="#333333"/>
<path d="M130 70.5L114 70.5L122 78.5L130 70.5Z" fill="#333333"/>
</svg>
