<svg width="222" height="106" viewBox="0 0 222 106" fill="none" xmlns="http://www.w3.org/2000/svg">
<rect x="8.5" y="8.5" width="205" height="89" rx="3.5" fill="#333333"/>
<path d="M35.763 24.986L31.182 38H28.914L24.396 24.986H26.277L30.048 35.786L33.891 24.986H35.763ZM40.9629 38.18C40.0929 38.18 39.3309 37.994 38.6769 37.622C38.0289 37.244 37.5249 36.698 37.1649 35.984C36.8109 35.27 36.6339 34.406 36.6339 33.392C36.6339 32.414 36.8019 31.559 37.1379 30.827C37.4799 30.095 37.9749 29.528 38.6229 29.126C39.2709 28.718 40.0539 28.514 40.9719 28.514C41.8479 28.514 42.6069 28.706 43.2489 29.09C43.8909 29.468 44.3889 30.023 44.7429 30.755C45.0969 31.481 45.2739 32.36 45.2739 33.392C45.2739 34.334 45.1059 35.165 44.7699 35.885C44.4399 36.605 43.9539 37.169 43.3119 37.577C42.6759 37.979 41.8929 38.18 40.9629 38.18ZM40.9719 36.695C41.4999 36.695 41.9409 36.557 42.2949 36.281C42.6549 35.999 42.9249 35.606 43.1049 35.102C43.2849 34.592 43.3749 34.004 43.3749 33.338C43.3749 32.72 43.2939 32.159 43.1319 31.655C42.9759 31.145 42.7209 30.74 42.3669 30.44C42.0129 30.14 41.5479 29.99 40.9719 29.99C40.4319 29.99 39.9819 30.128 39.6219 30.404C39.2619 30.674 38.9889 31.061 38.8029 31.565C38.6229 32.063 38.5329 32.654 38.5329 33.338C38.5329 33.944 38.6139 34.502 38.7759 35.012C38.9379 35.522 39.1989 35.93 39.5589 36.236C39.9189 36.542 40.3899 36.695 40.9719 36.695ZM52.5723 30.08H50.4843L50.4933 35.633C50.4933 35.939 50.5233 36.164 50.5833 36.308C50.6493 36.446 50.7573 36.536 50.9073 36.578C51.0633 36.614 51.2733 36.632 51.5373 36.632H52.6263V37.883C52.5063 37.931 52.3263 37.973 52.0863 38.009C51.8523 38.045 51.5493 38.063 51.1773 38.063C50.4873 38.063 49.9503 37.97 49.5663 37.784C49.1883 37.598 48.9243 37.331 48.7743 36.983C48.6303 36.629 48.5583 36.203 48.5583 35.705V30.08H47.0463V28.694H48.6123L49.0893 25.958H50.4843V28.685H52.5723V30.08ZM56.5783 33.797C56.5783 34.355 56.6683 34.856 56.8483 35.3C57.0343 35.738 57.3133 36.086 57.6853 36.344C58.0573 36.596 58.5193 36.722 59.0713 36.722C59.6233 36.722 60.1003 36.596 60.5023 36.344C60.9103 36.092 61.1773 35.717 61.3033 35.219H63.0853C62.9773 35.855 62.7223 36.395 62.3203 36.839C61.9243 37.283 61.4443 37.619 60.8803 37.847C60.3163 38.069 59.7253 38.18 59.1073 38.18C58.2253 38.18 57.4483 37.991 56.7763 37.613C56.1043 37.229 55.5793 36.683 55.2013 35.975C54.8293 35.267 54.6433 34.424 54.6433 33.446C54.6433 32.48 54.8143 31.628 55.1563 30.89C55.4983 30.146 55.9933 29.564 56.6413 29.144C57.2893 28.724 58.0693 28.514 58.9813 28.514C59.8813 28.514 60.6373 28.706 61.2493 29.09C61.8673 29.474 62.3353 30.014 62.6533 30.71C62.9713 31.4 63.1303 32.216 63.1303 33.158V33.797H56.5783ZM56.5783 32.546H61.2943C61.2943 32.06 61.2103 31.619 61.0423 31.223C60.8743 30.821 60.6163 30.506 60.2683 30.278C59.9263 30.044 59.4943 29.927 58.9723 29.927C58.4383 29.927 57.9943 30.056 57.6403 30.314C57.2863 30.572 57.0193 30.902 56.8393 31.304C56.6653 31.706 56.5783 32.12 56.5783 32.546ZM71.2721 40.97C70.7021 40.97 70.3061 40.928 70.0841 40.844C69.8681 40.76 69.7601 40.718 69.7601 40.718V39.476L70.7051 39.494C71.0651 39.512 71.3591 39.491 71.5871 39.431C71.8211 39.371 72.0041 39.287 72.1361 39.179C72.2741 39.077 72.3791 38.966 72.4511 38.846C72.5231 38.726 72.5771 38.615 72.6131 38.513L72.9011 37.73L69.2741 28.694H71.2001L73.8101 35.57L76.4021 28.694H78.2921L74.4131 38.522C74.1491 39.17 73.8581 39.671 73.5401 40.025C73.2281 40.379 72.8831 40.625 72.5051 40.763C72.1271 40.901 71.7161 40.97 71.2721 40.97ZM83.9168 38.18C83.0468 38.18 82.2848 37.994 81.6308 37.622C80.9828 37.244 80.4788 36.698 80.1188 35.984C79.7648 35.27 79.5878 34.406 79.5878 33.392C79.5878 32.414 79.7558 31.559 80.0918 30.827C80.4338 30.095 80.9288 29.528 81.5768 29.126C82.2248 28.718 83.0078 28.514 83.9258 28.514C84.8018 28.514 85.5608 28.706 86.2028 29.09C86.8448 29.468 87.3428 30.023 87.6968 30.755C88.0508 31.481 88.2278 32.36 88.2278 33.392C88.2278 34.334 88.0598 35.165 87.7238 35.885C87.3938 36.605 86.9078 37.169 86.2658 37.577C85.6298 37.979 84.8468 38.18 83.9168 38.18ZM83.9258 36.695C84.4538 36.695 84.8948 36.557 85.2488 36.281C85.6088 35.999 85.8788 35.606 86.0588 35.102C86.2388 34.592 86.3288 34.004 86.3288 33.338C86.3288 32.72 86.2478 32.159 86.0858 31.655C85.9298 31.145 85.6748 30.74 85.3208 30.44C84.9668 30.14 84.5018 29.99 83.9258 29.99C83.3858 29.99 82.9358 30.128 82.5758 30.404C82.2158 30.674 81.9428 31.061 81.7568 31.565C81.5768 32.063 81.4868 32.654 81.4868 33.338C81.4868 33.944 81.5678 34.502 81.7298 35.012C81.8918 35.522 82.1528 35.93 82.5128 36.236C82.8728 36.542 83.3438 36.695 83.9258 36.695ZM94.1163 38.18C93.6483 38.174 93.2013 38.105 92.7753 37.973C92.3493 37.841 91.9683 37.643 91.6323 37.379C91.3023 37.115 91.0383 36.788 90.8403 36.398C90.6483 36.008 90.5523 35.555 90.5523 35.039V28.694H92.4873V34.832C92.4873 35.39 92.6613 35.843 93.0093 36.191C93.3573 36.539 93.8823 36.713 94.5843 36.713C95.2203 36.713 95.7303 36.548 96.1143 36.218C96.4983 35.882 96.6903 35.393 96.6903 34.751V28.694H98.6073V38H97.1133L96.8973 36.2C96.7893 36.686 96.5943 37.076 96.3123 37.37C96.0363 37.658 95.7063 37.868 95.3223 38C94.9443 38.126 94.5423 38.186 94.1163 38.18ZM101.73 38V28.694H103.575V30.602C103.731 30.146 103.947 29.765 104.223 29.459C104.505 29.147 104.832 28.913 105.204 28.757C105.576 28.595 105.969 28.514 106.383 28.514C106.509 28.514 106.629 28.523 106.743 28.541C106.857 28.553 106.947 28.577 107.013 28.613V30.467C106.935 30.431 106.833 30.407 106.707 30.395C106.587 30.383 106.482 30.374 106.392 30.368C105.984 30.338 105.612 30.359 105.276 30.431C104.94 30.503 104.649 30.623 104.403 30.791C104.163 30.959 103.977 31.178 103.845 31.448C103.719 31.718 103.656 32.036 103.656 32.402V38H101.73ZM119.31 28.694V30.08H117.132V38H115.197V30.08H113.298V28.694H115.197V27.281C115.197 26.537 115.395 25.97 115.791 25.58C116.187 25.184 116.769 24.986 117.537 24.986H119.391L119.4 26.318H118.059C117.687 26.318 117.432 26.417 117.294 26.615C117.162 26.807 117.096 27.104 117.096 27.506V28.694H119.31ZM124.47 38.18C123.87 38.18 123.336 38.072 122.868 37.856C122.406 37.64 122.043 37.328 121.779 36.92C121.515 36.512 121.383 36.02 121.383 35.444C121.383 34.412 121.749 33.641 122.481 33.131C123.213 32.621 124.38 32.351 125.982 32.321L127.512 32.276V31.601C127.512 31.067 127.353 30.647 127.035 30.341C126.717 30.035 126.228 29.885 125.568 29.891C125.07 29.891 124.626 30.005 124.236 30.233C123.852 30.461 123.6 30.836 123.48 31.358H121.806C121.842 30.74 122.019 30.221 122.337 29.801C122.661 29.375 123.105 29.054 123.669 28.838C124.233 28.622 124.896 28.514 125.658 28.514C126.504 28.514 127.2 28.631 127.746 28.865C128.292 29.093 128.697 29.429 128.961 29.873C129.231 30.317 129.366 30.857 129.366 31.493V38H127.737L127.584 36.29C127.236 37.004 126.795 37.499 126.261 37.775C125.733 38.045 125.136 38.18 124.47 38.18ZM125.073 36.839C125.367 36.839 125.658 36.788 125.946 36.686C126.234 36.578 126.495 36.434 126.729 36.254C126.963 36.068 127.149 35.861 127.287 35.633C127.431 35.405 127.506 35.171 127.512 34.931V33.392L126.252 33.419C125.61 33.425 125.064 33.491 124.614 33.617C124.17 33.743 123.828 33.938 123.588 34.202C123.354 34.466 123.237 34.817 123.237 35.255C123.237 35.753 123.411 36.143 123.759 36.425C124.107 36.701 124.545 36.839 125.073 36.839ZM139.784 28.694L136.4 38H134.771L131.378 28.694H133.16L135.518 35.561H135.644L138.002 28.694H139.784ZM145.423 38.18C144.553 38.18 143.791 37.994 143.137 37.622C142.489 37.244 141.985 36.698 141.625 35.984C141.271 35.27 141.094 34.406 141.094 33.392C141.094 32.414 141.262 31.559 141.598 30.827C141.94 30.095 142.435 29.528 143.083 29.126C143.731 28.718 144.514 28.514 145.432 28.514C146.308 28.514 147.067 28.706 147.709 29.09C148.351 29.468 148.849 30.023 149.203 30.755C149.557 31.481 149.734 32.36 149.734 33.392C149.734 34.334 149.566 35.165 149.23 35.885C148.9 36.605 148.414 37.169 147.772 37.577C147.136 37.979 146.353 38.18 145.423 38.18ZM145.432 36.695C145.96 36.695 146.401 36.557 146.755 36.281C147.115 35.999 147.385 35.606 147.565 35.102C147.745 34.592 147.835 34.004 147.835 33.338C147.835 32.72 147.754 32.159 147.592 31.655C147.436 31.145 147.181 30.74 146.827 30.44C146.473 30.14 146.008 29.99 145.432 29.99C144.892 29.99 144.442 30.128 144.082 30.404C143.722 30.674 143.449 31.061 143.263 31.565C143.083 32.063 142.993 32.654 142.993 33.338C142.993 33.944 143.074 34.502 143.236 35.012C143.398 35.522 143.659 35.93 144.019 36.236C144.379 36.542 144.85 36.695 145.432 36.695ZM152.344 38V28.694H154.189V30.602C154.345 30.146 154.561 29.765 154.837 29.459C155.119 29.147 155.446 28.913 155.818 28.757C156.19 28.595 156.583 28.514 156.997 28.514C157.123 28.514 157.243 28.523 157.357 28.541C157.471 28.553 157.561 28.577 157.627 28.613V30.467C157.549 30.431 157.447 30.407 157.321 30.395C157.201 30.383 157.096 30.374 157.006 30.368C156.598 30.338 156.226 30.359 155.89 30.431C155.554 30.503 155.263 30.623 155.017 30.791C154.777 30.959 154.591 31.178 154.459 31.448C154.333 31.718 154.27 32.036 154.27 32.402V38H152.344ZM161.984 28.694V38H160.13V28.694H161.984ZM162.02 24.995V26.894H160.085V24.995H162.02ZM170.365 30.08H168.277L168.286 35.633C168.286 35.939 168.316 36.164 168.376 36.308C168.442 36.446 168.55 36.536 168.7 36.578C168.856 36.614 169.066 36.632 169.33 36.632H170.419V37.883C170.299 37.931 170.119 37.973 169.879 38.009C169.645 38.045 169.342 38.063 168.97 38.063C168.28 38.063 167.743 37.97 167.359 37.784C166.981 37.598 166.717 37.331 166.567 36.983C166.423 36.629 166.351 36.203 166.351 35.705V30.08H164.839V28.694H166.405L166.882 25.958H168.277V28.685H170.365V30.08ZM174.371 33.797C174.371 34.355 174.461 34.856 174.641 35.3C174.827 35.738 175.106 36.086 175.478 36.344C175.85 36.596 176.312 36.722 176.864 36.722C177.416 36.722 177.893 36.596 178.295 36.344C178.703 36.092 178.97 35.717 179.096 35.219H180.878C180.77 35.855 180.515 36.395 180.113 36.839C179.717 37.283 179.237 37.619 178.673 37.847C178.109 38.069 177.518 38.18 176.9 38.18C176.018 38.18 175.241 37.991 174.569 37.613C173.897 37.229 173.372 36.683 172.994 35.975C172.622 35.267 172.436 34.424 172.436 33.446C172.436 32.48 172.607 31.628 172.949 30.89C173.291 30.146 173.786 29.564 174.434 29.144C175.082 28.724 175.862 28.514 176.774 28.514C177.674 28.514 178.43 28.706 179.042 29.09C179.66 29.474 180.128 30.014 180.446 30.71C180.764 31.4 180.923 32.216 180.923 33.158V33.797H174.371ZM174.371 32.546H179.087C179.087 32.06 179.003 31.619 178.835 31.223C178.667 30.821 178.409 30.506 178.061 30.278C177.719 30.044 177.287 29.927 176.765 29.927C176.231 29.927 175.787 30.056 175.433 30.314C175.079 30.572 174.812 30.902 174.632 31.304C174.458 31.706 174.371 32.12 174.371 32.546ZM25.305 60V50.694H27.15V52.602C27.306 52.146 27.522 51.765 27.798 51.459C28.08 51.147 28.407 50.913 28.779 50.757C29.151 50.595 29.544 50.514 29.958 50.514C30.084 50.514 30.204 50.523 30.318 50.541C30.432 50.553 30.522 50.577 30.588 50.613V52.467C30.51 52.431 30.408 52.407 30.282 52.395C30.162 52.383 30.057 52.374 29.967 52.368C29.559 52.338 29.187 52.359 28.851 52.431C28.515 52.503 28.224 52.623 27.978 52.791C27.738 52.959 27.552 53.178 27.42 53.448C27.294 53.718 27.231 54.036 27.231 54.402V60H25.305ZM34.2112 55.797C34.2112 56.355 34.3012 56.856 34.4812 57.3C34.6672 57.738 34.9462 58.086 35.3182 58.344C35.6902 58.596 36.1522 58.722 36.7042 58.722C37.2562 58.722 37.7332 58.596 38.1352 58.344C38.5432 58.092 38.8102 57.717 38.9362 57.219H40.7182C40.6102 57.855 40.3552 58.395 39.9532 58.839C39.5572 59.283 39.0772 59.619 38.5132 59.847C37.9492 60.069 37.3582 60.18 36.7402 60.18C35.8582 60.18 35.0812 59.991 34.4092 59.613C33.7372 59.229 33.2122 58.683 32.8342 57.975C32.4622 57.267 32.2762 56.424 32.2762 55.446C32.2762 54.48 32.4472 53.628 32.7892 52.89C33.1312 52.146 33.6262 51.564 34.2742 51.144C34.9222 50.724 35.7022 50.514 36.6142 50.514C37.5142 50.514 38.2702 50.706 38.8822 51.09C39.5002 51.474 39.9682 52.014 40.2862 52.71C40.6042 53.4 40.7632 54.216 40.7632 55.158V55.797H34.2112ZM34.2112 54.546H38.9272C38.9272 54.06 38.8432 53.619 38.6752 53.223C38.5072 52.821 38.2492 52.506 37.9012 52.278C37.5592 52.044 37.1272 51.927 36.6052 51.927C36.0712 51.927 35.6272 52.056 35.2732 52.314C34.9192 52.572 34.6522 52.902 34.4722 53.304C34.2982 53.706 34.2112 54.12 34.2112 54.546ZM46.8116 60.18C46.1636 60.18 45.5546 60.078 44.9846 59.874C44.4206 59.67 43.9466 59.349 43.5626 58.911C43.1846 58.473 42.9476 57.912 42.8516 57.228H44.5706C44.6486 57.582 44.7956 57.876 45.0116 58.11C45.2336 58.338 45.4976 58.509 45.8036 58.623C46.1156 58.731 46.4486 58.785 46.8026 58.785C47.3906 58.785 47.8646 58.68 48.2246 58.47C48.5906 58.254 48.7736 57.924 48.7736 57.48C48.7736 57.162 48.6746 56.907 48.4766 56.715C48.2846 56.523 47.9786 56.382 47.5586 56.292L45.7046 55.851C44.9366 55.671 44.3216 55.386 43.8596 54.996C43.3976 54.6 43.1636 54.048 43.1576 53.34C43.1576 52.794 43.2926 52.308 43.5626 51.882C43.8386 51.456 44.2466 51.123 44.7866 50.883C45.3266 50.637 45.9986 50.514 46.8026 50.514C47.8526 50.514 48.6956 50.748 49.3316 51.216C49.9676 51.684 50.2976 52.362 50.3216 53.25H48.6566C48.5966 52.824 48.4016 52.491 48.0716 52.251C47.7476 52.005 47.3186 51.882 46.7846 51.882C46.2326 51.882 45.7796 51.993 45.4256 52.215C45.0716 52.431 44.8946 52.764 44.8946 53.214C44.8946 53.52 45.0236 53.763 45.2816 53.943C45.5396 54.117 45.9266 54.261 46.4426 54.375L48.2066 54.816C48.6626 54.936 49.0376 55.095 49.3316 55.293C49.6256 55.485 49.8566 55.698 50.0246 55.932C50.1926 56.166 50.3096 56.409 50.3756 56.661C50.4476 56.913 50.4836 57.15 50.4836 57.372C50.4836 57.96 50.3336 58.464 50.0336 58.884C49.7396 59.298 49.3166 59.619 48.7646 59.847C48.2186 60.069 47.5676 60.18 46.8116 60.18ZM58.0166 52.08H55.9286L55.9376 57.633C55.9376 57.939 55.9676 58.164 56.0276 58.308C56.0936 58.446 56.2016 58.536 56.3516 58.578C56.5076 58.614 56.7176 58.632 56.9816 58.632H58.0706V59.883C57.9506 59.931 57.7706 59.973 57.5306 60.009C57.2966 60.045 56.9936 60.063 56.6216 60.063C55.9316 60.063 55.3946 59.97 55.0106 59.784C54.6326 59.598 54.3686 59.331 54.2186 58.983C54.0746 58.629 54.0026 58.203 54.0026 57.705V52.08H52.4906V50.694H54.0566L54.5336 47.958H55.9286V50.685H58.0166V52.08ZM63.3855 60.18C62.7855 60.18 62.2515 60.072 61.7835 59.856C61.3215 59.64 60.9585 59.328 60.6945 58.92C60.4305 58.512 60.2985 58.02 60.2985 57.444C60.2985 56.412 60.6645 55.641 61.3965 55.131C62.1285 54.621 63.2955 54.351 64.8975 54.321L66.4275 54.276V53.601C66.4275 53.067 66.2685 52.647 65.9505 52.341C65.6325 52.035 65.1435 51.885 64.4835 51.891C63.9855 51.891 63.5415 52.005 63.1515 52.233C62.7675 52.461 62.5155 52.836 62.3955 53.358H60.7215C60.7575 52.74 60.9345 52.221 61.2525 51.801C61.5765 51.375 62.0205 51.054 62.5845 50.838C63.1485 50.622 63.8115 50.514 64.5735 50.514C65.4195 50.514 66.1155 50.631 66.6615 50.865C67.2075 51.093 67.6125 51.429 67.8765 51.873C68.1465 52.317 68.2815 52.857 68.2815 53.493V60H66.6525L66.4995 58.29C66.1515 59.004 65.7105 59.499 65.1765 59.775C64.6485 60.045 64.0515 60.18 63.3855 60.18ZM63.9885 58.839C64.2825 58.839 64.5735 58.788 64.8615 58.686C65.1495 58.578 65.4105 58.434 65.6445 58.254C65.8785 58.068 66.0645 57.861 66.2025 57.633C66.3465 57.405 66.4215 57.171 66.4275 56.931V55.392L65.1675 55.419C64.5255 55.425 63.9795 55.491 63.5295 55.617C63.0855 55.743 62.7435 55.938 62.5035 56.202C62.2695 56.466 62.1525 56.817 62.1525 57.255C62.1525 57.753 62.3265 58.143 62.6745 58.425C63.0225 58.701 63.4605 58.839 63.9885 58.839ZM74.8078 60.18C74.3398 60.174 73.8928 60.105 73.4668 59.973C73.0408 59.841 72.6598 59.643 72.3238 59.379C71.9938 59.115 71.7298 58.788 71.5318 58.398C71.3398 58.008 71.2438 57.555 71.2438 57.039V50.694H73.1788V56.832C73.1788 57.39 73.3528 57.843 73.7008 58.191C74.0488 58.539 74.5738 58.713 75.2758 58.713C75.9118 58.713 76.4218 58.548 76.8058 58.218C77.1898 57.882 77.3818 57.393 77.3818 56.751V50.694H79.2988V60H77.8048L77.5888 58.2C77.4808 58.686 77.2858 59.076 77.0038 59.37C76.7278 59.658 76.3978 59.868 76.0138 60C75.6358 60.126 75.2338 60.186 74.8078 60.18ZM82.422 60V50.694H84.267V52.602C84.423 52.146 84.639 51.765 84.915 51.459C85.197 51.147 85.524 50.913 85.896 50.757C86.268 50.595 86.661 50.514 87.075 50.514C87.201 50.514 87.321 50.523 87.435 50.541C87.549 50.553 87.639 50.577 87.705 50.613V52.467C87.627 52.431 87.525 52.407 87.399 52.395C87.279 52.383 87.174 52.374 87.084 52.368C86.676 52.338 86.304 52.359 85.968 52.431C85.632 52.503 85.341 52.623 85.095 52.791C84.855 52.959 84.669 53.178 84.537 53.448C84.411 53.718 84.348 54.036 84.348 54.402V60H82.422ZM92.445 60.18C91.845 60.18 91.311 60.072 90.843 59.856C90.381 59.64 90.018 59.328 89.754 58.92C89.49 58.512 89.358 58.02 89.358 57.444C89.358 56.412 89.724 55.641 90.456 55.131C91.188 54.621 92.355 54.351 93.957 54.321L95.487 54.276V53.601C95.487 53.067 95.328 52.647 95.01 52.341C94.692 52.035 94.203 51.885 93.543 51.891C93.045 51.891 92.601 52.005 92.211 52.233C91.827 52.461 91.575 52.836 91.455 53.358H89.781C89.817 52.74 89.994 52.221 90.312 51.801C90.636 51.375 91.08 51.054 91.644 50.838C92.208 50.622 92.871 50.514 93.633 50.514C94.479 50.514 95.175 50.631 95.721 50.865C96.267 51.093 96.672 51.429 96.936 51.873C97.206 52.317 97.341 52.857 97.341 53.493V60H95.712L95.559 58.29C95.211 59.004 94.77 59.499 94.236 59.775C93.708 60.045 93.111 60.18 92.445 60.18ZM93.048 58.839C93.342 58.839 93.633 58.788 93.921 58.686C94.209 58.578 94.47 58.434 94.704 58.254C94.938 58.068 95.124 57.861 95.262 57.633C95.406 57.405 95.481 57.171 95.487 56.931V55.392L94.227 55.419C93.585 55.425 93.039 55.491 92.589 55.617C92.145 55.743 91.803 55.938 91.563 56.202C91.329 56.466 91.212 56.817 91.212 57.255C91.212 57.753 91.386 58.143 91.734 58.425C92.082 58.701 92.52 58.839 93.048 58.839ZM100.588 60V50.694H102.469V52.035C102.619 51.783 102.82 51.546 103.072 51.324C103.33 51.102 103.645 50.922 104.017 50.784C104.395 50.646 104.83 50.577 105.322 50.577C105.904 50.577 106.441 50.694 106.933 50.928C107.431 51.156 107.83 51.516 108.13 52.008C108.43 52.494 108.58 53.124 108.58 53.898V60H106.654V54.105C106.654 53.439 106.474 52.944 106.114 52.62C105.76 52.296 105.301 52.134 104.737 52.134C104.359 52.134 103.999 52.197 103.657 52.323C103.315 52.449 103.039 52.641 102.829 52.899C102.619 53.151 102.514 53.469 102.514 53.853V60H100.588ZM116.136 52.08H114.048L114.057 57.633C114.057 57.939 114.087 58.164 114.147 58.308C114.213 58.446 114.321 58.536 114.471 58.578C114.627 58.614 114.837 58.632 115.101 58.632H116.19V59.883C116.07 59.931 115.89 59.973 115.65 60.009C115.416 60.045 115.113 60.063 114.741 60.063C114.051 60.063 113.514 59.97 113.13 59.784C112.752 59.598 112.488 59.331 112.338 58.983C112.194 58.629 112.122 58.203 112.122 57.705V52.08H110.61V50.694H112.176L112.653 47.958H114.048V50.685H116.136V52.08ZM122.323 60.18C121.675 60.18 121.066 60.078 120.496 59.874C119.932 59.67 119.458 59.349 119.074 58.911C118.696 58.473 118.459 57.912 118.363 57.228H120.082C120.16 57.582 120.307 57.876 120.523 58.11C120.745 58.338 121.009 58.509 121.315 58.623C121.627 58.731 121.96 58.785 122.314 58.785C122.902 58.785 123.376 58.68 123.736 58.47C124.102 58.254 124.285 57.924 124.285 57.48C124.285 57.162 124.186 56.907 123.988 56.715C123.796 56.523 123.49 56.382 123.07 56.292L121.216 55.851C120.448 55.671 119.833 55.386 119.371 54.996C118.909 54.6 118.675 54.048 118.669 53.34C118.669 52.794 118.804 52.308 119.074 51.882C119.35 51.456 119.758 51.123 120.298 50.883C120.838 50.637 121.51 50.514 122.314 50.514C123.364 50.514 124.207 50.748 124.843 51.216C125.479 51.684 125.809 52.362 125.833 53.25H124.168C124.108 52.824 123.913 52.491 123.583 52.251C123.259 52.005 122.83 51.882 122.296 51.882C121.744 51.882 121.291 51.993 120.937 52.215C120.583 52.431 120.406 52.764 120.406 53.214C120.406 53.52 120.535 53.763 120.793 53.943C121.051 54.117 121.438 54.261 121.954 54.375L123.718 54.816C124.174 54.936 124.549 55.095 124.843 55.293C125.137 55.485 125.368 55.698 125.536 55.932C125.704 56.166 125.821 56.409 125.887 56.661C125.959 56.913 125.995 57.15 125.995 57.372C125.995 57.96 125.845 58.464 125.545 58.884C125.251 59.298 124.828 59.619 124.276 59.847C123.73 60.069 123.079 60.18 122.323 60.18ZM136.815 60.18C135.945 60.18 135.183 59.994 134.529 59.622C133.881 59.244 133.377 58.698 133.017 57.984C132.663 57.27 132.486 56.406 132.486 55.392C132.486 54.414 132.654 53.559 132.99 52.827C133.332 52.095 133.827 51.528 134.475 51.126C135.123 50.718 135.906 50.514 136.824 50.514C137.7 50.514 138.459 50.706 139.101 51.09C139.743 51.468 140.241 52.023 140.595 52.755C140.949 53.481 141.126 54.36 141.126 55.392C141.126 56.334 140.958 57.165 140.622 57.885C140.292 58.605 139.806 59.169 139.164 59.577C138.528 59.979 137.745 60.18 136.815 60.18ZM136.824 58.695C137.352 58.695 137.793 58.557 138.147 58.281C138.507 57.999 138.777 57.606 138.957 57.102C139.137 56.592 139.227 56.004 139.227 55.338C139.227 54.72 139.146 54.159 138.984 53.655C138.828 53.145 138.573 52.74 138.219 52.44C137.865 52.14 137.4 51.99 136.824 51.99C136.284 51.99 135.834 52.128 135.474 52.404C135.114 52.674 134.841 53.061 134.655 53.565C134.475 54.063 134.385 54.654 134.385 55.338C134.385 55.944 134.466 56.502 134.628 57.012C134.79 57.522 135.051 57.93 135.411 58.236C135.771 58.542 136.242 58.695 136.824 58.695ZM143.735 60V50.694H145.616V52.035C145.766 51.783 145.967 51.546 146.219 51.324C146.477 51.102 146.792 50.922 147.164 50.784C147.542 50.646 147.977 50.577 148.469 50.577C149.051 50.577 149.588 50.694 150.08 50.928C150.578 51.156 150.977 51.516 151.277 52.008C151.577 52.494 151.727 53.124 151.727 53.898V60H149.801V54.105C149.801 53.439 149.621 52.944 149.261 52.62C148.907 52.296 148.448 52.134 147.884 52.134C147.506 52.134 147.146 52.197 146.804 52.323C146.462 52.449 146.186 52.641 145.976 52.899C145.766 53.151 145.661 53.469 145.661 53.853V60H143.735ZM25.647 68.986H33.963L33.954 70.642H27.609V74.665H33.252V76.303H27.609V82H25.647V68.986ZM40.1016 82.18C39.2316 82.18 38.4696 81.994 37.8156 81.622C37.1676 81.244 36.6636 80.698 36.3036 79.984C35.9496 79.27 35.7726 78.406 35.7726 77.392C35.7726 76.414 35.9406 75.559 36.2766 74.827C36.6186 74.095 37.1136 73.528 37.7616 73.126C38.4096 72.718 39.1926 72.514 40.1106 72.514C40.9866 72.514 41.7456 72.706 42.3876 73.09C43.0296 73.468 43.5276 74.023 43.8816 74.755C44.2356 75.481 44.4126 76.36 44.4126 77.392C44.4126 78.334 44.2446 79.165 43.9086 79.885C43.5786 80.605 43.0926 81.169 42.4506 81.577C41.8146 81.979 41.0316 82.18 40.1016 82.18ZM40.1106 80.695C40.6386 80.695 41.0796 80.557 41.4336 80.281C41.7936 79.999 42.0636 79.606 42.2436 79.102C42.4236 78.592 42.5136 78.004 42.5136 77.338C42.5136 76.72 42.4326 76.159 42.2706 75.655C42.1146 75.145 41.8596 74.74 41.5056 74.44C41.1516 74.14 40.6866 73.99 40.1106 73.99C39.5706 73.99 39.1206 74.128 38.7606 74.404C38.4006 74.674 38.1276 75.061 37.9416 75.565C37.7616 76.063 37.6716 76.654 37.6716 77.338C37.6716 77.944 37.7526 78.502 37.9146 79.012C38.0766 79.522 38.3376 79.93 38.6976 80.236C39.0576 80.542 39.5286 80.695 40.1106 80.695ZM50.8017 82.18C49.9317 82.18 49.1697 81.994 48.5157 81.622C47.8677 81.244 47.3637 80.698 47.0037 79.984C46.6497 79.27 46.4727 78.406 46.4727 77.392C46.4727 76.414 46.6407 75.559 46.9767 74.827C47.3187 74.095 47.8137 73.528 48.4617 73.126C49.1097 72.718 49.8927 72.514 50.8107 72.514C51.6867 72.514 52.4457 72.706 53.0877 73.09C53.7297 73.468 54.2277 74.023 54.5817 74.755C54.9357 75.481 55.1127 76.36 55.1127 77.392C55.1127 78.334 54.9447 79.165 54.6087 79.885C54.2787 80.605 53.7927 81.169 53.1507 81.577C52.5147 81.979 51.7317 82.18 50.8017 82.18ZM50.8107 80.695C51.3387 80.695 51.7797 80.557 52.1337 80.281C52.4937 79.999 52.7637 79.606 52.9437 79.102C53.1237 78.592 53.2137 78.004 53.2137 77.338C53.2137 76.72 53.1327 76.159 52.9707 75.655C52.8147 75.145 52.5597 74.74 52.2057 74.44C51.8517 74.14 51.3867 73.99 50.8107 73.99C50.2707 73.99 49.8207 74.128 49.4607 74.404C49.1007 74.674 48.8277 75.061 48.6417 75.565C48.4617 76.063 48.3717 76.654 48.3717 77.338C48.3717 77.944 48.4527 78.502 48.6147 79.012C48.7767 79.522 49.0377 79.93 49.3977 80.236C49.7577 80.542 50.2287 80.695 50.8107 80.695ZM61.1149 82.18C59.8909 82.18 58.9279 81.763 58.2259 80.929C57.5239 80.089 57.1729 78.88 57.1729 77.302C57.1729 76.336 57.3139 75.496 57.5959 74.782C57.8779 74.062 58.2979 73.504 58.8559 73.108C59.4199 72.712 60.1159 72.514 60.9439 72.514C61.3639 72.514 61.7359 72.565 62.0599 72.667C62.3899 72.769 62.6779 72.901 62.9239 73.063C63.1759 73.225 63.3829 73.399 63.5449 73.585C63.7129 73.771 63.8419 73.945 63.9319 74.107V68.626H65.8669V82H64.4269L64.2109 80.092C64.1449 80.296 64.0429 80.518 63.9049 80.758C63.7669 80.998 63.5779 81.226 63.3379 81.442C63.1039 81.658 62.8039 81.835 62.4379 81.973C62.0719 82.111 61.6309 82.18 61.1149 82.18ZM61.4839 80.731C62.3479 80.731 62.9719 80.461 63.3559 79.921C63.7399 79.375 63.9319 78.481 63.9319 77.239C63.9259 76.537 63.8389 75.943 63.6709 75.457C63.5029 74.971 63.2419 74.605 62.8879 74.359C62.5399 74.107 62.0809 73.981 61.5109 73.981C60.7969 73.981 60.2149 74.239 59.7649 74.755C59.3149 75.265 59.0899 76.093 59.0899 77.239C59.0899 78.367 59.2939 79.231 59.7019 79.831C60.1159 80.431 60.7099 80.731 61.4839 80.731ZM72.4397 82.18C71.9717 82.174 71.5247 82.105 71.0987 81.973C70.6727 81.841 70.2917 81.643 69.9557 81.379C69.6257 81.115 69.3617 80.788 69.1637 80.398C68.9717 80.008 68.8757 79.555 68.8757 79.039V72.694H70.8107V78.832C70.8107 79.39 70.9847 79.843 71.3327 80.191C71.6807 80.539 72.2057 80.713 72.9077 80.713C73.5437 80.713 74.0537 80.548 74.4377 80.218C74.8217 79.882 75.0137 79.393 75.0137 78.751V72.694H76.9307V82H75.4367L75.2207 80.2C75.1127 80.686 74.9177 81.076 74.6357 81.37C74.3597 81.658 74.0297 81.868 73.6457 82C73.2677 82.126 72.8657 82.186 72.4397 82.18ZM80.0538 84.898V72.694H81.9798L81.9978 74.242C82.1118 74.038 82.2588 73.837 82.4388 73.639C82.6188 73.435 82.8318 73.249 83.0778 73.081C83.3298 72.907 83.6148 72.769 83.9328 72.667C84.2568 72.565 84.6138 72.514 85.0038 72.514C85.7358 72.514 86.3808 72.685 86.9388 73.027C87.5028 73.363 87.9408 73.882 88.2528 74.584C88.5708 75.28 88.7298 76.165 88.7298 77.239C88.7298 78.319 88.5708 79.225 88.2528 79.957C87.9408 80.689 87.4938 81.244 86.9118 81.622C86.3298 81.994 85.6398 82.18 84.8418 82.18C84.4578 82.18 84.1128 82.126 83.8068 82.018C83.5008 81.91 83.2308 81.769 82.9968 81.595C82.7628 81.415 82.5618 81.223 82.3938 81.019C82.2318 80.809 82.0968 80.602 81.9888 80.398V84.898H80.0538ZM84.4368 80.713C85.1508 80.713 85.7358 80.437 86.1918 79.885C86.6538 79.327 86.8848 78.457 86.8848 77.275C86.8848 76.261 86.6718 75.46 86.2458 74.872C85.8258 74.278 85.2228 73.981 84.4368 73.981C83.6268 73.981 83.0148 74.29 82.6008 74.908C82.1868 75.52 81.9798 76.309 81.9798 77.275C81.9798 77.905 82.0698 78.481 82.2498 79.003C82.4358 79.519 82.7118 79.933 83.0778 80.245C83.4438 80.557 83.8968 80.713 84.4368 80.713ZM95.1991 82L99.8971 68.986H102.021L106.71 82H104.766L103.542 78.589H98.4031L97.1521 82H95.1991ZM98.8621 76.843H103.047L100.968 70.876L98.8621 76.843ZM109.236 84.898V72.694H111.162L111.18 74.242C111.294 74.038 111.441 73.837 111.621 73.639C111.801 73.435 112.014 73.249 112.26 73.081C112.512 72.907 112.797 72.769 113.115 72.667C113.439 72.565 113.796 72.514 114.186 72.514C114.918 72.514 115.563 72.685 116.121 73.027C116.685 73.363 117.123 73.882 117.435 74.584C117.753 75.28 117.912 76.165 117.912 77.239C117.912 78.319 117.753 79.225 117.435 79.957C117.123 80.689 116.676 81.244 116.094 81.622C115.512 81.994 114.822 82.18 114.024 82.18C113.64 82.18 113.295 82.126 112.989 82.018C112.683 81.91 112.413 81.769 112.179 81.595C111.945 81.415 111.744 81.223 111.576 81.019C111.414 80.809 111.279 80.602 111.171 80.398V84.898H109.236ZM113.619 80.713C114.333 80.713 114.918 80.437 115.374 79.885C115.836 79.327 116.067 78.457 116.067 77.275C116.067 76.261 115.854 75.46 115.428 74.872C115.008 74.278 114.405 73.981 113.619 73.981C112.809 73.981 112.197 74.29 111.783 74.908C111.369 75.52 111.162 76.309 111.162 77.275C111.162 77.905 111.252 78.481 111.432 79.003C111.618 79.519 111.894 79.933 112.26 80.245C112.626 80.557 113.079 80.713 113.619 80.713ZM120.517 84.898V72.694H122.443L122.461 74.242C122.575 74.038 122.722 73.837 122.902 73.639C123.082 73.435 123.295 73.249 123.541 73.081C123.793 72.907 124.078 72.769 124.396 72.667C124.72 72.565 125.077 72.514 125.467 72.514C126.199 72.514 126.844 72.685 127.402 73.027C127.966 73.363 128.404 73.882 128.716 74.584C129.034 75.28 129.193 76.165 129.193 77.239C129.193 78.319 129.034 79.225 128.716 79.957C128.404 80.689 127.957 81.244 127.375 81.622C126.793 81.994 126.103 82.18 125.305 82.18C124.921 82.18 124.576 82.126 124.27 82.018C123.964 81.91 123.694 81.769 123.46 81.595C123.226 81.415 123.025 81.223 122.857 81.019C122.695 80.809 122.56 80.602 122.452 80.398V84.898H120.517ZM124.9 80.713C125.614 80.713 126.199 80.437 126.655 79.885C127.117 79.327 127.348 78.457 127.348 77.275C127.348 76.261 127.135 75.46 126.709 74.872C126.289 74.278 125.686 73.981 124.9 73.981C124.09 73.981 123.478 74.29 123.064 74.908C122.65 75.52 122.443 76.309 122.443 77.275C122.443 77.905 122.533 78.481 122.713 79.003C122.899 79.519 123.175 79.933 123.541 80.245C123.907 80.557 124.36 80.713 124.9 80.713ZM133.876 79.705V82H131.653V79.705H133.876ZM133.921 68.986L133.417 78.499H132.157L131.626 68.986H133.921Z" fill="white"/>
<rect x="8.5" y="8.5" width="205" height="89" rx="3.5" stroke="#333333"/>
<path d="M119 98L103 98L111 106L119 98Z" fill="#333333"/>
<path d="M119 96.5L103 96.5L111 104.5L119 96.5Z" fill="#333333"/>
</svg>
