<svg width="160" height="46" viewBox="0 0 160 46" fill="none" xmlns="http://www.w3.org/2000/svg">
<path d="M153.334 46H5.89746C2.65533 46 0 43.4301 0 40.2923V6.04582C0 2.90799 2.65533 0.338078 5.89746 0.338078H153.334C156.576 0.338078 159.231 2.90799 159.231 6.04582V40.2923C159.231 43.4301 156.576 46 153.334 46Z" fill="black"/>
<path d="M153.334 1.25274C156.064 1.25274 158.286 3.40314 158.286 6.04582V40.2923C158.286 42.9349 156.064 45.0853 153.334 45.0853H5.89746C3.16693 45.0853 0.945067 42.9349 0.945067 40.2923V6.04582C0.945067 3.40314 3.16693 1.25274 5.89746 1.25274H153.334ZM153.334 0.338078H5.89746C2.65533 0.338078 0 2.90799 0 6.04582V40.2923C0 43.4301 2.65533 46 5.89746 46H153.334C156.576 46 159.231 43.4301 159.231 40.2923V6.04582C159.231 2.90799 156.576 0.338078 153.334 0.338078Z" fill="#A6A6A6"/>
<path d="M55.9278 12.0318C55.9278 12.985 55.6329 13.7484 55.052 14.3178C54.3841 14.9927 53.5143 15.3323 52.4483 15.3323C51.4295 15.3323 50.5596 14.987 49.846 14.3063C49.131 13.6157 48.7742 12.7681 48.7742 11.7536C48.7742 10.739 49.131 9.89141 49.846 9.20648C50.5596 8.52012 51.4295 8.1748 52.4483 8.1748C52.9555 8.1748 53.4391 8.27612 53.9005 8.46447C54.3605 8.65426 54.735 8.9111 55.0063 9.22788L54.39 9.83005C53.9168 9.28924 53.2725 9.02241 52.4483 9.02241C51.7052 9.02241 51.0609 9.27355 50.5139 9.78011C49.9728 10.2881 49.7015 10.9459 49.7015 11.7536C49.7015 12.5612 49.9728 13.2247 50.5139 13.7327C51.0609 14.2336 51.7052 14.4904 52.4483 14.4904C53.2371 14.4904 53.9005 14.2336 54.4239 13.727C54.7689 13.3917 54.965 12.9294 55.0166 12.3386H52.4483V11.5138H55.8747C55.916 11.6922 55.9278 11.8649 55.9278 12.0318Z" fill="white" stroke="white" stroke-width="0.16" stroke-miterlimit="10"/>
<path d="M61.3631 9.1725H58.1446V11.3414H61.0461V12.1662H58.1446V14.3351H61.3631V15.1756H57.2334V8.33203H61.3631V9.1725Z" fill="white" stroke="white" stroke-width="0.16" stroke-miterlimit="10"/>
<path d="M65.2008 15.1756H64.2896V9.1725H62.3154V8.33203H67.1764V9.1725H65.2008V15.1756Z" fill="white" stroke="white" stroke-width="0.16" stroke-miterlimit="10"/>
<path d="M70.6938 15.1756V8.33203H71.6035V15.1756H70.6938Z" fill="white" stroke="white" stroke-width="0.16" stroke-miterlimit="10"/>
<path d="M75.6368 15.1756H74.733V9.1725H72.7515V8.33203H77.6183V9.1725H75.6368V15.1756Z" fill="white" stroke="white" stroke-width="0.16" stroke-miterlimit="10"/>
<path d="M86.8215 14.2949C86.1241 14.987 85.2601 15.3323 84.2296 15.3323C83.1931 15.3323 82.3291 14.987 81.6317 14.2949C80.9358 13.6043 80.5894 12.7567 80.5894 11.7536C80.5894 10.7504 80.9358 9.90282 81.6317 9.21219C82.3291 8.52012 83.1931 8.1748 84.2296 8.1748C85.2542 8.1748 86.1182 8.52012 86.8156 9.21789C87.5174 9.91424 87.8639 10.7561 87.8639 11.7536C87.8639 12.7567 87.5174 13.6043 86.8215 14.2949ZM82.3055 13.7213C82.8304 14.2336 83.4688 14.4904 84.2296 14.4904C84.9844 14.4904 85.6287 14.2336 86.1477 13.7213C86.6711 13.209 86.9365 12.5512 86.9365 11.7536C86.9365 10.9559 86.6711 10.2981 86.1477 9.78582C85.6287 9.27355 84.9844 9.0167 84.2296 9.0167C83.4688 9.0167 82.8304 9.27355 82.3055 9.78582C81.7821 10.2981 81.5167 10.9559 81.5167 11.7536C81.5167 12.5512 81.7821 13.209 82.3055 13.7213Z" fill="white" stroke="white" stroke-width="0.16" stroke-miterlimit="10"/>
<path d="M89.1414 15.1756V8.33203H90.2471L93.6853 13.6545H93.7252L93.6853 12.3389V8.33203H94.595V15.1756H93.6455L90.0451 9.59059H90.0053L90.0451 10.9119V15.1756H89.1414Z" fill="white" stroke="white" stroke-width="0.16" stroke-miterlimit="10"/>
<path d="M80.3648 25.1697C77.5945 25.1697 75.3313 27.2102 75.3313 30.0255C75.3313 32.8181 77.5945 34.88 80.3648 34.88C83.141 34.88 85.4042 32.8181 85.4042 30.0255C85.4042 27.2102 83.141 25.1697 80.3648 25.1697ZM80.3648 32.9679C78.8447 32.9679 77.537 31.7536 77.537 30.0255C77.537 28.2747 78.8447 27.0818 80.3648 27.0818C81.8849 27.0818 83.1985 28.2747 83.1985 30.0255C83.1985 31.7536 81.8849 32.9679 80.3648 32.9679ZM69.3823 25.1697C66.606 25.1697 64.3488 27.2102 64.3488 30.0255C64.3488 32.8181 66.606 34.88 69.3823 34.88C72.157 34.88 74.4157 32.8181 74.4157 30.0255C74.4157 27.2102 72.157 25.1697 69.3823 25.1697ZM69.3823 32.9679C67.8607 32.9679 66.5485 31.7536 66.5485 30.0255C66.5485 28.2747 67.8607 27.0818 69.3823 27.0818C70.9023 27.0818 72.2101 28.2747 72.2101 30.0255C72.2101 31.7536 70.9023 32.9679 69.3823 32.9679ZM56.3135 26.658V28.7213H61.4045C61.2556 29.8743 60.8575 30.7219 60.2471 31.3126C59.504 32.0261 58.3467 32.8181 56.3135 32.8181C53.1805 32.8181 50.7271 30.3709 50.7271 27.3386C50.7271 24.3064 53.1805 21.8592 56.3135 21.8592C58.0076 21.8592 59.2401 22.4999 60.1498 23.3304L61.6522 21.8763C60.3798 20.7005 58.6872 19.7973 56.3135 19.7973C52.0172 19.7973 48.4065 23.1805 48.4065 27.3386C48.4065 31.4967 52.0172 34.88 56.3135 34.88C58.6356 34.88 60.3798 34.1437 61.751 32.7624C63.156 31.4025 63.5939 29.4904 63.5939 27.9465C63.5939 27.467 63.5526 27.0261 63.4789 26.658H56.3135ZM109.753 28.2576C109.339 27.1717 108.061 25.1697 105.457 25.1697C102.877 25.1697 100.729 27.1374 100.729 30.0255C100.729 32.7453 102.855 34.88 105.705 34.88C108.009 34.88 109.339 33.5201 109.886 32.7282L108.176 31.6251C107.605 32.4328 106.828 32.9679 105.705 32.9679C104.589 32.9679 103.788 32.4727 103.275 31.4967L109.985 28.8098L109.753 28.2576ZM102.912 29.8743C102.855 28.0021 104.415 27.0432 105.532 27.0432C106.408 27.0432 107.151 27.467 107.399 28.0735L102.912 29.8743ZM97.4586 34.5846H99.6642V20.3152H97.4586V34.5846ZM93.8464 26.2513H93.7727C93.2773 25.6834 92.3322 25.1697 91.135 25.1697C88.6227 25.1697 86.3257 27.3044 86.3257 30.0412C86.3257 32.7624 88.6227 34.88 91.135 34.88C92.3322 34.88 93.2773 34.362 93.7727 33.777H93.8464V34.4733C93.8464 36.3297 92.8217 37.3272 91.1689 37.3272C89.8214 37.3272 88.9854 36.3854 88.6404 35.5934L86.7223 36.3683C87.2752 37.6554 88.7392 39.2393 91.1689 39.2393C93.755 39.2393 95.937 37.7667 95.937 34.1836V25.4651H93.8464V26.2513ZM91.3238 32.9679C89.8037 32.9679 88.5313 31.7364 88.5313 30.0412C88.5313 28.3303 89.8037 27.0818 91.3238 27.0818C92.8217 27.0818 94.0027 28.3303 94.0027 30.0412C94.0027 31.7364 92.8217 32.9679 91.3238 32.9679ZM120.08 20.3152H114.804V34.5846H117.004V29.1779H120.08C122.523 29.1779 124.919 27.467 124.919 24.7459C124.919 22.0261 122.517 20.3152 120.08 20.3152ZM120.137 27.1931H117.004V22.3001H120.137C121.78 22.3001 122.717 23.62 122.717 24.7459C122.717 25.8503 121.78 27.1931 120.137 27.1931ZM133.735 25.1426C132.146 25.1426 130.493 25.8218 129.813 27.3272L131.766 28.1192C132.186 27.3272 132.958 27.0704 133.775 27.0704C134.916 27.0704 136.074 27.7339 136.091 28.9054V29.0552C135.693 28.8326 134.841 28.503 133.793 28.503C131.69 28.503 129.548 29.6231 129.548 31.7136C129.548 33.6257 131.27 34.8571 133.206 34.8571C134.686 34.8571 135.503 34.2107 136.016 33.4587H136.091V34.5618H138.216V29.088C138.216 26.5581 136.264 25.1426 133.735 25.1426ZM133.47 32.9622C132.75 32.9622 131.748 32.6169 131.748 31.7536C131.748 30.6491 132.998 30.2253 134.08 30.2253C135.049 30.2253 135.503 30.4322 136.091 30.7048C135.919 32.0261 134.744 32.9622 133.47 32.9622ZM145.956 25.4551L143.428 31.6408H143.353L140.739 25.4551H138.366L142.294 34.0994L140.053 38.9096H142.352L148.404 25.4551H145.956ZM126.128 34.5846H128.333V20.3152H126.128V34.5846Z" fill="white"/>
<path d="M12.3075 8.94404C11.961 9.29507 11.7605 9.84158 11.7605 10.5493V35.7947C11.7605 36.5025 11.961 37.049 12.3075 37.4L12.393 37.4771L27.0098 23.3361V23.0022L12.393 8.86128L12.3075 8.94404Z" fill="url(#paint0_linear)"/>
<path d="M31.8766 28.0518L27.0098 23.3357V23.0018L31.8825 18.2858L31.9916 18.3472L37.7623 21.525C39.4092 22.4268 39.4092 23.9108 37.7623 24.8183L31.9916 27.9904L31.8766 28.0518Z" fill="url(#paint1_linear)"/>
<path d="M31.9911 27.9904L27.0092 23.1688L12.3069 37.3996C12.8539 37.9561 13.7459 38.0232 14.7602 37.4667L31.9911 27.9904Z" fill="url(#paint2_linear)"/>
<path d="M31.9911 18.3473L14.7602 8.87105C13.7459 8.32026 12.8539 8.38732 12.3069 8.94383L27.0092 23.1689L31.9911 18.3473Z" fill="url(#paint3_linear)"/>
<defs>
<linearGradient id="paint0_linear" x1="25.712" y1="36.0576" x2="6.56436" y2="16.2735" gradientUnits="userSpaceOnUse">
<stop stop-color="#00A0FF"/>
<stop offset="0.0066" stop-color="#00A1FF"/>
<stop offset="0.2601" stop-color="#00BEFF"/>
<stop offset="0.5122" stop-color="#00D2FF"/>
<stop offset="0.7604" stop-color="#00DFFF"/>
<stop offset="1" stop-color="#00E3FF"/>
</linearGradient>
<linearGradient id="paint1_linear" x1="39.9068" y1="23.1672" x2="11.3668" y2="23.1672" gradientUnits="userSpaceOnUse">
<stop stop-color="#FFE000"/>
<stop offset="0.4087" stop-color="#FFBD00"/>
<stop offset="0.7754" stop-color="#FFA500"/>
<stop offset="1" stop-color="#FF9C00"/>
</linearGradient>
<linearGradient id="paint2_linear" x1="29.2821" y1="20.5477" x2="3.3163" y2="-6.28119" gradientUnits="userSpaceOnUse">
<stop stop-color="#FF3A44"/>
<stop offset="1" stop-color="#C31162"/>
</linearGradient>
<linearGradient id="paint3_linear" x1="8.60599" y1="45.7988" x2="20.2009" y2="33.8186" gradientUnits="userSpaceOnUse">
<stop stop-color="#32A071"/>
<stop offset="0.0685" stop-color="#2DA771"/>
<stop offset="0.4762" stop-color="#15CF74"/>
<stop offset="0.8009" stop-color="#06E775"/>
<stop offset="1" stop-color="#00F076"/>
</linearGradient>
</defs>
</svg>
