<svg width="160" height="46" viewBox="0 0 160 46" fill="none" xmlns="http://www.w3.org/2000/svg">
<path d="M158.346 40.3947C158.346 42.8281 156.319 44.7992 153.812 44.7992H5.42428C2.91821 44.7992 0.884033 42.8281 0.884033 40.3947V5.27056C0.884033 2.83833 2.91821 0.860352 5.42428 0.860352H153.811C156.319 0.860352 158.345 2.83833 158.345 5.27056L158.346 40.3947Z" fill="black"/>
<path d="M153.334 0.914848C156.064 0.914848 158.286 3.06524 158.286 5.70792V39.9544C158.286 42.5971 156.064 44.7474 153.334 44.7474H5.89746C3.16693 44.7474 0.945067 42.5971 0.945067 39.9544V5.70792C0.945067 3.06524 3.16693 0.914848 5.89746 0.914848H153.334ZM153.334 0.000182674H5.89746C2.65533 0.000182674 0 2.57009 0 5.70792V39.9544C0 43.0922 2.65533 45.6621 5.89746 45.6621H153.334C156.576 45.6621 159.231 43.0922 159.231 39.9544V5.70792C159.231 2.57009 156.576 0.000182674 153.334 0.000182674Z" fill="#A6A6A6"/>
<path d="M35.5354 22.5841C35.5012 18.9049 38.6481 17.1149 38.792 17.0316C37.0098 14.5167 34.2474 14.1731 33.2767 14.1457C30.9566 13.9094 28.7062 15.4893 27.5243 15.4893C26.3189 15.4893 24.4989 14.1686 22.5374 14.2074C20.0133 14.2451 17.652 15.6594 16.3569 17.8558C13.6842 22.3341 15.6775 28.9151 18.2382 32.5349C19.5191 34.3078 21.0159 36.2872 22.975 36.2176C24.8917 36.1411 25.6076 35.0349 27.9206 35.0349C30.2124 35.0349 30.8847 36.2176 32.8828 36.173C34.9398 36.1411 36.2349 34.3922 37.471 32.6034C38.9512 30.5715 39.5457 28.5703 39.5693 28.4676C39.5209 28.4516 35.5744 26.9939 35.5354 22.5841Z" fill="white"/>
<path d="M31.7611 11.7645C32.7919 10.5168 33.4973 8.81928 33.3015 7.09668C31.8094 7.16061 29.9435 8.09553 28.8689 9.31585C27.9183 10.3912 27.069 12.1537 27.2884 13.8113C28.9645 13.9323 30.6854 12.9928 31.7611 11.7645Z" fill="white"/>
<path d="M63.2731 35.9627H60.5944L59.1272 31.5004H54.027L52.6293 35.9627H50.0215L55.0744 20.771H58.1954L63.2731 35.9627ZM58.6848 29.6283L57.3579 25.6614C57.2176 25.2561 56.9545 24.3018 56.5665 22.7995H56.5193C56.3648 23.4456 56.1159 24.4 55.7739 25.6614L54.4705 29.6283H58.6848Z" fill="white"/>
<path d="M76.2674 30.3505C76.2674 32.2135 75.7472 33.6861 74.7069 34.7672C73.7751 35.7295 72.618 36.2101 71.2368 36.2101C69.7459 36.2101 68.675 35.6918 68.0227 34.6553H67.9755V40.4258H65.4609V28.6142C65.4609 27.443 65.429 26.241 65.3677 25.0081H67.5792L67.7196 26.7444H67.7668C68.6054 25.4362 69.8781 24.7832 71.586 24.7832C72.9211 24.7832 74.0358 25.2935 74.9275 26.3152C75.8215 27.338 76.2674 28.6827 76.2674 30.3505ZM73.7055 30.4396C73.7055 29.3734 73.4578 28.4944 72.9601 27.8026C72.4163 27.0811 71.6862 26.7204 70.7709 26.7204C70.1505 26.7204 69.5867 26.9213 69.0831 27.3174C68.5782 27.717 68.248 28.2387 68.0935 28.8848C68.0156 29.1862 67.9767 29.4327 67.9767 29.6268V31.4533C67.9767 32.2501 68.2291 32.9224 68.7339 33.4715C69.2388 34.0206 69.8946 34.2946 70.7013 34.2946C71.6485 34.2946 72.3857 33.9407 72.9129 33.2352C73.4413 32.5286 73.7055 31.5971 73.7055 30.4396Z" fill="white"/>
<path d="M89.2862 30.3505C89.2862 32.2135 88.766 33.6861 87.7246 34.7672C86.7939 35.7295 85.6368 36.2101 84.2557 36.2101C82.7648 36.2101 81.6938 35.6918 81.0427 34.6553H80.9955V40.4258H78.4809V28.6142C78.4809 27.443 78.449 26.241 78.3877 25.0081H80.5992L80.7396 26.7444H80.7868C81.6242 25.4362 82.8969 24.7832 84.606 24.7832C85.94 24.7832 87.0546 25.2935 87.9487 26.3152C88.8392 27.338 89.2862 28.6827 89.2862 30.3505ZM86.7243 30.4396C86.7243 29.3734 86.4755 28.4944 85.9777 27.8026C85.434 27.0811 84.7062 26.7204 83.7898 26.7204C83.1682 26.7204 82.6056 26.9213 82.1007 27.3174C81.5959 27.717 81.2668 28.2387 81.1123 28.8848C81.0357 29.1862 80.9955 29.4327 80.9955 29.6268V31.4533C80.9955 32.2501 81.248 32.9224 81.7504 33.4715C82.2552 34.0195 82.9111 34.2946 83.7202 34.2946C84.6673 34.2946 85.4045 33.9407 85.9317 33.2352C86.4601 32.5286 86.7243 31.5971 86.7243 30.4396Z" fill="white"/>
<path d="M103.841 31.7024C103.841 32.9946 103.378 34.046 102.447 34.8576C101.424 35.7446 100.001 36.1876 98.1713 36.1876C96.4823 36.1876 95.1282 35.8725 94.1033 35.2412L94.6859 33.2127C95.7899 33.8588 97.0013 34.183 98.3211 34.183C99.2683 34.183 100.005 33.9752 100.535 33.562C101.062 33.1487 101.325 32.594 101.325 31.9022C101.325 31.2857 101.108 30.7663 100.673 30.3451C100.24 29.9239 99.5171 29.5323 98.5075 29.1705C95.7593 28.1784 94.3864 26.7253 94.3864 24.8143C94.3864 23.5655 94.8676 22.5415 95.8312 21.7447C96.7913 20.9467 98.0723 20.5483 99.674 20.5483C101.102 20.5483 102.289 20.7892 103.236 21.2698L102.607 23.2538C101.723 22.7881 100.723 22.5552 99.6032 22.5552C98.7186 22.5552 98.0274 22.7664 97.5321 23.1865C97.1133 23.562 96.9034 24.0198 96.9034 24.562C96.9034 25.1625 97.1428 25.6591 97.6241 26.0495C98.0428 26.4102 98.8036 26.8006 99.9076 27.2218C101.258 27.7481 102.25 28.3634 102.888 29.0689C103.524 29.772 103.841 30.6522 103.841 31.7024Z" fill="white"/>
<path d="M112.155 26.8347H109.384V32.1532C109.384 33.5059 109.872 34.1817 110.851 34.1817C111.3 34.1817 111.673 34.1441 111.968 34.0687L112.037 35.9169C111.542 36.0961 110.89 36.1863 110.082 36.1863C109.089 36.1863 108.313 35.8929 107.752 35.3073C107.194 34.7205 106.914 33.7365 106.914 32.3541V26.8324H105.262V25.006H106.914V23.0003L109.384 22.2788V25.006H112.155V26.8347Z" fill="white"/>
<path d="M124.661 30.3949C124.661 32.0787 124.163 33.4611 123.17 34.5421C122.129 35.6551 120.746 36.2099 119.023 36.2099C117.362 36.2099 116.04 35.6768 115.054 34.6106C114.068 33.5444 113.575 32.1985 113.575 30.5764C113.575 28.8789 114.082 27.4885 115.1 26.4075C116.116 25.3253 117.486 24.7842 119.209 24.7842C120.87 24.7842 122.206 25.3173 123.215 26.3846C124.18 27.42 124.661 28.7568 124.661 30.3949ZM122.052 30.4737C122.052 29.4634 121.829 28.597 121.377 27.8744C120.85 26.9999 120.096 26.5639 119.12 26.5639C118.109 26.5639 117.341 27.0011 116.814 27.8744C116.362 28.5981 116.139 29.4782 116.139 30.5193C116.139 31.5296 116.362 32.396 116.814 33.1175C117.358 33.9919 118.117 34.428 119.097 34.428C120.057 34.428 120.811 33.9828 121.355 33.0947C121.818 32.3584 122.052 31.4828 122.052 30.4737Z" fill="white"/>
<path d="M132.834 27.1485C132.585 27.104 132.32 27.0811 132.041 27.0811C131.157 27.0811 130.473 27.4042 129.992 28.0515C129.573 28.6222 129.363 29.3437 129.363 30.2147V35.9624H126.849L126.873 28.4578C126.873 27.1953 126.841 26.0458 126.779 25.0092H128.969L129.061 27.1051H129.13C129.396 26.3848 129.815 25.8049 130.388 25.37C130.948 24.9784 131.553 24.7832 132.205 24.7832C132.438 24.7832 132.648 24.7992 132.834 24.8277V27.1485Z" fill="white"/>
<path d="M144.081 29.967C144.081 30.4031 144.051 30.7707 143.989 31.0709H136.445C136.474 32.1531 136.839 32.9807 137.539 33.5515C138.175 34.0617 138.997 34.3175 140.007 34.3175C141.124 34.3175 142.143 34.1451 143.059 33.7992L143.453 35.4887C142.382 35.9407 141.118 36.1656 139.659 36.1656C137.904 36.1656 136.526 35.6656 135.524 34.6668C134.524 33.6679 134.022 32.3266 134.022 30.6439C134.022 28.9921 134.488 27.6166 135.421 26.5195C136.398 25.3483 137.718 24.7627 139.378 24.7627C141.01 24.7627 142.244 25.3483 143.083 26.5195C143.747 27.4499 144.081 28.6006 144.081 29.967ZM141.683 29.3357C141.7 28.6143 141.536 27.991 141.195 27.4647C140.759 26.7878 140.091 26.4499 139.191 26.4499C138.369 26.4499 137.7 26.7798 137.189 27.4419C136.77 27.9682 136.522 28.5994 136.445 29.3346H141.683V29.3357Z" fill="white"/>
<path d="M57.854 11.4252C57.854 12.7688 57.4376 13.7802 56.6061 14.4594C55.8359 15.0861 54.7413 15.4 53.3235 15.4C52.6206 15.4 52.019 15.3704 51.5154 15.311V7.9697C52.1724 7.86696 52.8801 7.81445 53.6444 7.81445C54.9949 7.81445 56.0128 8.0987 56.6993 8.66719C57.4683 9.30988 57.854 10.2288 57.854 11.4252ZM56.5506 11.4583C56.5506 10.5873 56.3124 9.91947 55.8359 9.45372C55.3593 8.98911 54.6634 8.75623 53.747 8.75623C53.3578 8.75623 53.0263 8.78134 52.7515 8.83386V14.4149C52.9036 14.4377 53.182 14.448 53.5866 14.448C54.5325 14.448 55.2626 14.1934 55.7769 13.6843C56.2911 13.1752 56.5506 12.4332 56.5506 11.4583Z" fill="white"/>
<path d="M64.7646 12.599C64.7646 13.4266 64.5204 14.1047 64.0321 14.6366C63.5202 15.1834 62.842 15.4563 61.9951 15.4563C61.1789 15.4563 60.529 15.1948 60.0442 14.6697C59.5606 14.1458 59.3188 13.4848 59.3188 12.688C59.3188 11.8547 59.5677 11.1709 60.0678 10.6401C60.5679 10.1092 61.2402 9.84326 62.0871 9.84326C62.9033 9.84326 63.5591 10.1047 64.0557 10.6286C64.5275 11.1378 64.7646 11.7953 64.7646 12.599ZM63.4825 12.6378C63.4825 12.1412 63.3716 11.7154 63.151 11.3604C62.8915 10.9312 62.5224 10.7165 62.0423 10.7165C61.5457 10.7165 61.1683 10.9312 60.9088 11.3604C60.6871 11.7154 60.5774 12.148 60.5774 12.6595C60.5774 13.156 60.6882 13.5818 60.9088 13.9369C61.1765 14.3661 61.5493 14.5807 62.0305 14.5807C62.5023 14.5807 62.8727 14.3626 63.1392 13.9254C63.368 13.5636 63.4825 13.1343 63.4825 12.6378Z" fill="white"/>
<path d="M74.0298 9.95215L72.2901 15.3334H71.1577L70.4371 12.9967C70.2543 12.4133 70.1056 11.8334 69.99 11.2581H69.9676C69.8603 11.8494 69.7117 12.4282 69.5206 12.9967L68.7551 15.3334H67.6098L65.9739 9.95215H67.2442L67.8729 12.5104C68.025 13.1154 68.15 13.6919 68.2503 14.2375H68.2727C68.3647 13.7878 68.5169 13.2147 68.7315 12.5218L69.5206 9.95329H70.5279L71.2839 12.467C71.4668 13.08 71.6154 13.6702 71.7298 14.2387H71.764C71.8477 13.685 71.9739 13.0948 72.1414 12.467L72.8161 9.95329H74.0298V9.95215Z" fill="white"/>
<path d="M80.4381 15.3341H79.202V12.2519C79.202 11.3022 78.8293 10.8273 78.0815 10.8273C77.7147 10.8273 77.4186 10.9574 77.1886 11.2188C76.961 11.4802 76.8454 11.7885 76.8454 12.1412V15.333H75.6093V11.4905C75.6093 11.0179 75.5939 10.5054 75.5645 9.95057H76.6508L76.7086 10.7919H76.7428C76.8867 10.5305 77.1013 10.3147 77.3832 10.1424C77.7182 9.94144 78.0933 9.83984 78.5037 9.83984C79.0227 9.83984 79.4544 10.0019 79.7976 10.3273C80.2246 10.7257 80.4381 11.3204 80.4381 12.1104V15.3341Z" fill="white"/>
<path d="M83.8472 15.3338H82.6123V7.4834H83.8472V15.3338Z" fill="white"/>
<path d="M91.1249 12.599C91.1249 13.4266 90.8808 14.1047 90.3925 14.6366C89.8806 15.1834 89.2012 15.4563 88.3555 15.4563C87.5381 15.4563 86.8882 15.1948 86.4046 14.6697C85.921 14.1458 85.6792 13.4848 85.6792 12.688C85.6792 11.8547 85.9281 11.1709 86.4282 10.6401C86.9283 10.1092 87.6006 9.84326 88.4463 9.84326C89.2637 9.84326 89.9183 10.1047 90.416 10.6286C90.8878 11.1378 91.1249 11.7953 91.1249 12.599ZM89.8416 12.6378C89.8416 12.1412 89.7308 11.7154 89.5102 11.3604C89.2519 10.9312 88.8815 10.7165 88.4026 10.7165C87.9049 10.7165 87.5275 10.9312 87.2692 11.3604C87.0474 11.7154 86.9377 12.148 86.9377 12.6595C86.9377 13.156 87.0486 13.5818 87.2692 13.9369C87.5369 14.3661 87.9096 14.5807 88.3909 14.5807C88.8627 14.5807 89.2318 14.3626 89.4984 13.9254C89.7284 13.5636 89.8416 13.1343 89.8416 12.6378Z" fill="white"/>
<path d="M97.1069 15.3341H95.997L95.905 14.7142H95.8708C95.491 15.2085 94.9496 15.4563 94.2466 15.4563C93.7217 15.4563 93.2971 15.293 92.9775 14.9688C92.6873 14.6743 92.5422 14.3079 92.5422 13.8729C92.5422 13.2154 92.8253 12.7143 93.395 12.3672C93.9635 12.0202 94.7632 11.8501 95.7929 11.8581V11.7576C95.7929 11.0487 95.4084 10.6949 94.6382 10.6949C94.0897 10.6949 93.6061 10.8284 93.1886 11.0933L92.9374 10.3079C93.454 9.99851 94.0921 9.84326 94.8446 9.84326C96.2977 9.84326 97.0267 10.5853 97.0267 12.0693V14.051C97.0267 14.5887 97.0538 15.0168 97.1069 15.3341ZM95.8236 13.4848V12.6549C94.4601 12.6321 93.7783 12.9939 93.7783 13.7394C93.7783 14.0202 93.8562 14.2302 94.0154 14.3706C94.1747 14.5111 94.3775 14.5807 94.6193 14.5807C94.8906 14.5807 95.1442 14.4974 95.3754 14.3318C95.6077 14.1652 95.7504 13.954 95.8035 13.6948C95.8165 13.6366 95.8236 13.5658 95.8236 13.4848Z" fill="white"/>
<path d="M104.13 15.3338H103.034L102.976 14.4697H102.942C102.591 15.1272 101.994 15.456 101.156 15.456C100.486 15.456 99.9279 15.2014 99.4856 14.6923C99.0433 14.1831 98.8228 13.5222 98.8228 12.7105C98.8228 11.8395 99.0622 11.1341 99.5434 10.5953C100.009 10.093 100.58 9.84184 101.26 9.84184C102.006 9.84184 102.529 10.085 102.826 10.5724H102.85V7.4834H104.087V13.8841C104.087 14.408 104.101 14.8909 104.13 15.3338ZM102.85 13.0644V12.1672C102.85 12.0119 102.838 11.8864 102.815 11.7905C102.746 11.5028 102.596 11.2608 102.368 11.0656C102.138 10.8704 101.861 10.7722 101.541 10.7722C101.08 10.7722 100.719 10.9491 100.454 11.3042C100.191 11.6592 100.058 12.1124 100.058 12.666C100.058 13.198 100.184 13.6295 100.437 13.9617C100.705 14.3156 101.066 14.4925 101.518 14.4925C101.924 14.4925 102.248 14.3452 102.495 14.0496C102.733 13.7768 102.85 13.448 102.85 13.0644Z" fill="white"/>
<path d="M114.704 12.599C114.704 13.4266 114.459 14.1047 113.971 14.6366C113.459 15.1834 112.782 15.4563 111.934 15.4563C111.119 15.4563 110.469 15.1948 109.983 14.6697C109.5 14.1458 109.258 13.4848 109.258 12.688C109.258 11.8547 109.507 11.1709 110.007 10.6401C110.507 10.1092 111.179 9.84326 112.027 9.84326C112.842 9.84326 113.499 10.1047 113.995 10.6286C114.466 11.1378 114.704 11.7953 114.704 12.599ZM113.423 12.6378C113.423 12.1412 113.312 11.7154 113.091 11.3604C112.83 10.9312 112.462 10.7165 111.981 10.7165C111.486 10.7165 111.108 10.9312 110.848 11.3604C110.626 11.7154 110.516 12.148 110.516 12.6595C110.516 13.156 110.627 13.5818 110.848 13.9369C111.116 14.3661 111.488 14.5807 111.969 14.5807C112.441 14.5807 112.813 14.3626 113.079 13.9254C113.307 13.5636 113.423 13.1343 113.423 12.6378Z" fill="white"/>
<path d="M121.349 15.3341H120.114V12.2519C120.114 11.3022 119.741 10.8273 118.992 10.8273C118.626 10.8273 118.33 10.9574 118.101 11.2188C117.872 11.4802 117.757 11.7885 117.757 12.1412V15.333H116.52V11.4905C116.52 11.0179 116.506 10.5054 116.477 9.95057H117.562L117.619 10.7919H117.654C117.799 10.5305 118.013 10.3147 118.294 10.1424C118.63 9.94144 119.004 9.83984 119.416 9.83984C119.934 9.83984 120.365 10.0019 120.709 10.3273C121.137 10.7257 121.349 11.3204 121.349 12.1104V15.3341Z" fill="white"/>
<path d="M129.668 10.8491H128.307V13.4632C128.307 14.1276 128.549 14.4598 129.028 14.4598C129.249 14.4598 129.433 14.4415 129.578 14.4039L129.61 15.3114C129.366 15.4004 129.045 15.445 128.65 15.445C128.162 15.445 127.782 15.3011 127.507 15.0135C127.231 14.7258 127.094 14.2418 127.094 13.5625V10.8491H126.282V9.95297H127.094V8.96667L128.306 8.61279V9.95183H129.667V10.8491H129.668Z" fill="white"/>
<path d="M136.213 15.3338H134.975V12.2745C134.975 11.3099 134.603 10.827 133.856 10.827C133.283 10.827 132.891 11.1067 132.677 11.666C132.64 11.7836 132.619 11.9274 132.619 12.0964V15.3327H131.384V7.4834H132.619V10.7265H132.642C133.032 10.1364 133.589 9.84184 134.312 9.84184C134.824 9.84184 135.248 10.0039 135.584 10.3293C136.003 10.7345 136.213 11.3373 136.213 12.1341V15.3338Z" fill="white"/>
<path d="M142.963 12.3889C142.963 12.6035 142.947 12.7839 142.917 12.9312H139.21C139.227 13.4631 139.404 13.8684 139.747 14.1492C140.061 14.4003 140.465 14.5259 140.96 14.5259C141.509 14.5259 142.009 14.4414 142.46 14.2713L142.653 15.1024C142.126 15.3239 141.505 15.4346 140.787 15.4346C139.926 15.4346 139.248 15.1892 138.757 14.6983C138.264 14.2074 138.02 13.5487 138.02 12.7223C138.02 11.9106 138.248 11.2348 138.706 10.696C139.185 10.1207 139.833 9.83301 140.65 9.83301C141.45 9.83301 142.057 10.1207 142.468 10.696C142.799 11.1526 142.963 11.7177 142.963 12.3889ZM141.784 12.0796C141.793 11.7246 141.712 11.4186 141.544 11.1606C141.33 10.8284 141.003 10.6618 140.561 10.6618C140.157 10.6618 139.828 10.8239 139.577 11.1492C139.372 11.4083 139.25 11.7177 139.21 12.0796H141.784Z" fill="white"/>
</svg>
