<svg id="Layer_1" data-name="Layer 1" xmlns="http://www.w3.org/2000/svg" viewBox="0 0 280 272.22"><defs><style>.cls-1{fill:#f06;}.cls-2{fill:#fff;}.cls-3{fill:none;}.cls-4{fill:#ff005f;}</style></defs><rect class="cls-1" width="280" height="272.22" rx="70"/><path class="cls-2" d="M222.4,143.42c-2.22-3.7-8.39-6.88-15.63-10.37-1.64-.78-3.05-1.46-3.88-1.94l-.09-.05-1.51-.74.64-1.18.1-.17c2.19-4,3.7-6.53,4.18-7.19,11.44-15.94,12.52-41.6-8-57.78-8.27-6.51-19.25-10.1-30.89-10.1A58,58,0,0,0,129,68.35a81.12,81.12,0,0,0-9.11,9.78C100.81,78.76,76.31,88,63,112.33c-12,21.81-10.94,48.66-4.56,65.6,5.72,15.2,25.79,43.95,60.77,43.95h.18c2,0,4-.12,5.92-.29l60.19-.36c12.43-.63,24.2-9.3,30-22.09,1.31-2.88,2.57-6.09,3.84-9.78.6-1.66,1.16-3.36,1.66-5l.08-.25C225,171.58,229.91,156,222.4,143.42Z"/><path class="cls-3" d="M159.93,157.51a57,57,0,0,1-3.75,13A57,57,0,0,0,159.93,157.51Z"/><path class="cls-4" d="M191.75,111.36c-2.18,3-7.65,13.09-11.39,20.56-2.54,5.09-7.19,21.29-8.54,27.46l-.33,1.53c-1.7,7.84-3.62,16.72-11.8,25.85C150.2,197.36,134.76,204,119.41,204h-.13c-25.21,0-39.84-21.19-44.06-32.39-4.78-12.69-5.72-34,3.49-50.7,10.07-18.42,29-25,43.3-25a47.78,47.78,0,0,1,6.72.47A77.57,77.57,0,0,1,141,81.63a39.82,39.82,0,0,1,26.38-9.88C175,71.75,182,74,187.18,78,199,87.34,198.36,102.15,191.75,111.36Z"/><path d="M187.18,78C182,74,175,71.75,167.34,71.75A39.82,39.82,0,0,0,141,81.63a77.57,77.57,0,0,0-12.23,14.79A47.78,47.78,0,0,0,122,96c-14.33,0-33.23,6.57-43.3,25-9.21,16.74-8.27,38-3.49,50.7C79.44,182.84,94.07,204,119.28,204h.13c15.35-.05,30.79-6.67,40.28-17.27,8.18-9.13,10.1-18,11.8-25.85l.33-1.53c1.35-6.17,6-22.37,8.54-27.46,3.74-7.47,9.21-17.51,11.39-20.56C198.36,102.15,199,87.34,187.18,78ZM182,104.34c-2.69,3.75-7.73,13.1-11.06,19.6l-.69,1.35c-.22.43-.43.85-.62,1.24a101.74,101.74,0,0,0-4.82,13.07c-.24.76-.47,1.52-.7,2.28s-.46,1.52-.68,2.28c-1.55,5.3-2.86,10.37-3.47,13.35a57,57,0,0,1-3.75,13c-.27.59-.57,1.18-.89,1.77a31.87,31.87,0,0,1-3.46,5.16c-.35.43-.71.86-1.1,1.29s-.93,1-1.42,1.49-1,.95-1.53,1.41A44.17,44.17,0,0,1,119.4,192h-.12a31.86,31.86,0,0,1-21.13-8.17c-.71-.62-1.4-1.25-2.05-1.9q-.5-.49-1-1a42.69,42.69,0,0,1-8.65-13.53A47.79,47.79,0,0,1,83.75,153c0-.77,0-1.55,0-2.33,0-1.79.06-3.61.23-5.43a51.92,51.92,0,0,1,2.13-10.86,41.94,41.94,0,0,1,3.21-7.62,34.83,34.83,0,0,1,15.12-14.54,39.18,39.18,0,0,1,13.4-4A38.39,38.39,0,0,1,122,108c1,0,2,.05,3,.13s1.94.22,2.88.38l1.68.36.71.17a44.45,44.45,0,0,1,8.39,2.87q.53.24,1.05.51c.69.35,1.38.73,2.06,1.15A2.62,2.62,0,0,0,143,114a1.37,1.37,0,0,0,.86-.29,1.15,1.15,0,0,0,.26-.19l2.49-2.75a1.77,1.77,0,0,0,.33-.58,1.62,1.62,0,0,0,.07-.62,1.61,1.61,0,0,0-.58-1.12l-.59-.47-.71-.54c-.51-.37-1.09-.79-1.75-1.22a52.16,52.16,0,0,0-4.83-2.85c.65-1,1.31-2,2-2.89a65.53,65.53,0,0,1,6.54-8c.64-.66,1.29-1.29,1.92-1.86a27.68,27.68,0,0,1,18.33-6.79,26.24,26.24,0,0,1,3.58.25,20.68,20.68,0,0,1,6.31,1.88,13.59,13.59,0,0,1,2.5,1.57C186.45,92.78,184.75,100.47,182,104.34Z"/><path d="M141.77,113.56A2.62,2.62,0,0,0,143,114,2.62,2.62,0,0,1,141.77,113.56Z"/><path d="M169.6,126.53a101.74,101.74,0,0,0-4.82,13.07A101.74,101.74,0,0,1,169.6,126.53Z"/><path d="M86.49,167.4A47.79,47.79,0,0,1,83.75,153,47.79,47.79,0,0,0,86.49,167.4Z"/><path d="M124.14,127.48a1.63,1.63,0,0,0-1.42,2.72,26.42,26.42,0,0,1,0,37.57,1.62,1.62,0,0,0,1.42,2.71c11.94-2.95,17.15-11.68,17.52-21.5C141.29,139.17,136.08,130.43,124.14,127.48Z"/><path class="cls-2" d="M179.73,87.49a13.59,13.59,0,0,0-2.5-1.57A20.68,20.68,0,0,0,170.92,84a26.24,26.24,0,0,0-3.58-.25A27.68,27.68,0,0,0,149,90.58c-.63.57-1.28,1.2-1.92,1.86a65.53,65.53,0,0,0-6.54,8c-.65.93-1.31,1.89-2,2.89a52.16,52.16,0,0,1,4.83,2.85c.66.43,1.24.85,1.75,1.22l.71.54.59.47a1.61,1.61,0,0,1,.58,1.12,1.62,1.62,0,0,1-.07.62,1.77,1.77,0,0,1-.33.58l-2.49,2.75a1.15,1.15,0,0,1-.26.19,1.37,1.37,0,0,1-.86.29,2.62,2.62,0,0,1-1.27-.42c-.68-.42-1.37-.8-2.06-1.15q-.53-.27-1.05-.51a44.45,44.45,0,0,0-8.39-2.87l-.71-.17-1.68-.36c-.94-.16-1.9-.29-2.88-.38s-2-.13-3-.13a38.39,38.39,0,0,0-4.22.24,39.18,39.18,0,0,0-13.4,4,34.83,34.83,0,0,0-15.12,14.54,41.94,41.94,0,0,0-3.21,7.62,51.92,51.92,0,0,0-2.13,10.86c-.17,1.82-.24,3.64-.23,5.43,0,.78,0,1.56,0,2.33a47.79,47.79,0,0,0,2.74,14.44,42.69,42.69,0,0,0,8.65,13.53q.47.49,1,1c.65.65,1.34,1.28,2.05,1.9A31.86,31.86,0,0,0,119.28,192h.12a44.17,44.17,0,0,0,28.38-10.36q.79-.69,1.53-1.41c.49-.49,1-1,1.42-1.49s.75-.86,1.1-1.29a31.87,31.87,0,0,0,3.46-5.16c.32-.59.62-1.18.89-1.77a57,57,0,0,0,3.75-13c.61-3,1.92-8,3.47-13.35.22-.76.45-1.52.68-2.28s.46-1.52.7-2.28a101.74,101.74,0,0,1,4.82-13.07c.19-.39.4-.81.62-1.24l.69-1.35c3.33-6.5,8.37-15.85,11.06-19.6S186.45,92.78,179.73,87.49Zm-55.59,83a1.62,1.62,0,0,1-1.42-2.71,26.42,26.42,0,0,0,0-37.57,1.63,1.63,0,0,1,1.42-2.72c11.94,3,17.15,11.69,17.52,21.5C141.29,158.8,136.08,167.53,124.14,170.48Z"/><path class="cls-1" d="M202,149.49,190.61,146a4.48,4.48,0,0,0-5.38,3,118.27,118.27,0,0,0-2.9,12c-2.25,10.79-3.82,18.81-13.73,29.87-.26.3-.54.59-.81.88a4.41,4.41,0,0,0,3.42,7.45l18.29-.93a13.29,13.29,0,0,0,11.41-7.82c1-2.24,2.08-4.94,3.19-8.17.54-1.47,1-2.92,1.43-4.34l.08-.22C212.29,156.34,210.75,151.83,202,149.49Z"/></svg>